<?xml version="1.0" encoding="UTF-8"?>
<svg version="1.1" xmlns="http://www.w3.org/2000/svg" width="512" height="512">
<path d="M0 0 C20.81904176 -0.09355308 41.63804871 -0.16403295 62.45725822 -0.20724869 C72.12457187 -0.22785026 81.7917547 -0.2559248 91.45898438 -0.30175781 C99.88759359 -0.3416993 108.31610804 -0.36745029 116.74480927 -0.37635398 C121.20537752 -0.38155637 125.66567471 -0.39373348 130.12615585 -0.42292023 C134.33030112 -0.45020505 138.53406538 -0.45841879 142.73829079 -0.45243073 C144.27571627 -0.45352515 145.81315538 -0.46140105 147.35050392 -0.4768219 C160.0879158 -0.59824955 169.25184095 1.57190416 179 10 C179.61875 10.52464844 180.2375 11.04929687 180.875 11.58984375 C189.68868172 19.66272033 192.18147209 29.38144553 193 41 C193.35453725 50.16751282 193.25760931 59.34707334 193.23046875 68.51953125 C193.22927461 71.19081399 193.22877363 73.86208883 193.2290802 76.53337097 C193.22814907 82.10845316 193.21953719 87.68348031 193.20581055 93.25854492 C193.19005231 99.68203699 193.18481412 106.10546911 193.1855461 112.52897912 C193.18615848 118.74506819 193.18103636 124.96113803 193.17275429 131.1772213 C193.1695817 133.80735852 193.16760352 136.43749746 193.16686058 139.06763649 C193.16468436 142.74279353 193.15591362 146.41787655 193.14526367 150.09301758 C193.14571686 151.17010483 193.14617004 152.24719208 193.14663696 153.35691833 C193.12146921 159.31843804 192.77282541 165.08746407 192 171 C186.14002904 170.44599476 181.32437005 168.7628897 175.9375 166.4375 C175.10259033 166.08034912 174.26768066 165.72319824 173.4074707 165.35522461 C165.9303325 162.08912582 158.94132099 158.30086517 152 154 C151.39784668 153.62697754 150.79569336 153.25395508 150.17529297 152.86962891 C143.78406897 148.88911508 137.48257649 144.92550452 131.84375 139.8984375 C128.95143182 138.48904517 127.03805621 139.14734706 124 140 C121.46603705 141.50798906 121.46603705 141.50798906 119.0625 143.5 C92.51242158 163.59195124 58.393992 177.69723817 25.07421875 179.7890625 C22.94003532 179.88230447 22.94003532 179.88230447 21 181 C19.67824576 196.07200797 19.92489285 211.16116489 20.13208008 226.2722168 C20.17150754 229.20680442 20.19922079 232.14112471 20.21606445 235.07592773 C20.34384049 256.58600914 21.41041021 277.46157 28.5 298 C28.83475342 298.98218506 29.16950684 299.96437012 29.5144043 300.97631836 C35.95292492 318.98083665 46.12016605 335.13418591 58.3125 349.77734375 C60 352 60 352 60 354 C60.99 354.33 61.98 354.66 63 355 C64.61328125 356.671875 64.61328125 356.671875 66.3125 358.75 C68.5422654 361.39725339 70.72300921 363.72656416 73.4375 365.875 C74.283125 366.57625 75.12875 367.2775 76 368 C76 368.66 76 369.32 76 370 C76.54140625 370.2475 77.0828125 370.495 77.640625 370.75 C80.5282849 372.27988604 83.09776018 374.09150997 85.75 376 C86.73484375 376.70125 87.7196875 377.4025 88.734375 378.125 C89.48203125 378.74375 90.2296875 379.3625 91 380 C91 380.66 91 381.32 91 382 C91.66902344 382.23203125 92.33804688 382.4640625 93.02734375 382.703125 C96.80689834 384.35202398 100.10824928 386.5128552 103.5625 388.75 C109.508782 392.54484272 115.46377051 395.91212784 121.83984375 398.94140625 C124 400 124 400 125 401 C131.39347856 402.06903943 136.15438041 398.60501921 141.5 395.5625 C142.47960693 395.01480957 143.45921387 394.46711914 144.46850586 393.90283203 C158.14133791 386.19110708 170.87362478 377.61748119 182.9296875 367.5546875 C183.81914062 366.81476563 184.70859375 366.07484375 185.625 365.3125 C186.40101563 364.64863281 187.17703125 363.98476563 187.9765625 363.30078125 C188.64429688 362.87152344 189.31203125 362.44226563 190 362 C190.99 362.33 191.98 362.66 193 363 C193.07007435 370.71156792 193.12309858 378.4230587 193.15543652 386.13486671 C193.17097142 389.71730568 193.19198112 393.29952394 193.22631836 396.88183594 C193.25935394 400.35078415 193.27694403 403.81952258 193.28463173 407.28861618 C193.29272382 409.23029257 193.31606891 411.17188671 193.33988953 413.11343384 C193.34275354 428.5362234 190.75698787 439.76034351 180.015625 451.09375 C172.89067511 457.8197027 164.68215381 461.11812371 154.94223022 461.14044189 C153.85760197 461.14489858 153.85760197 461.14489858 152.75106204 461.1494453 C150.32149716 461.15813562 147.89198154 461.15964084 145.46240234 461.16113281 C143.72288915 461.16576087 141.98337696 461.17078551 140.24386597 461.17617798 C135.51218565 461.18930797 130.78051953 461.19574848 126.04882383 461.20018864 C123.09168653 461.2031193 120.13455311 461.20722417 117.17741776 461.21169281 C107.92269737 461.22537132 98.66798585 461.2350354 89.41325605 461.2388947 C78.73542461 461.24337196 68.0577214 461.26090295 57.37992895 461.2898953 C49.12416713 461.31153168 40.86844133 461.32160008 32.61265147 461.32293582 C27.68330052 461.32398274 22.75407005 461.32986618 17.82474899 461.34775543 C13.18395076 461.36426919 8.54336313 461.36637558 3.90254593 461.35761642 C2.20345749 461.35684773 0.50435758 461.36116656 -1.19470215 461.37107468 C-15.28804131 461.44840892 -24.9765943 459.53421891 -36 450 C-46.97474301 438.27697906 -48.30192753 425.24196999 -48.32226562 409.84448242 C-48.33153452 408.20599426 -48.34158551 406.56751036 -48.35235596 404.92903137 C-48.37848272 400.49502514 -48.39146934 396.0610793 -48.40037727 391.6270082 C-48.40625684 388.85224022 -48.41446967 386.07748843 -48.42338562 383.30272865 C-48.45070014 374.60758681 -48.47005217 365.91248235 -48.4777894 357.21730059 C-48.48675027 347.20439366 -48.52185848 337.19203284 -48.57979059 327.1792919 C-48.62310536 319.42189912 -48.64320216 311.66465958 -48.64587164 303.90714723 C-48.64796145 299.28169179 -48.65964118 294.65675093 -48.69551086 290.03142357 C-48.72861566 285.67843701 -48.73271594 281.32634802 -48.71523285 276.97327995 C-48.7136998 275.38304987 -48.7222759 273.79277006 -48.74214935 272.20266342 C-48.85778859 262.36727245 -47.69243053 255.23619937 -42 247 C-41.24021649 245.77465745 -40.48218536 244.54822514 -39.7265625 243.3203125 C-39.03304687 242.26585937 -38.33953125 241.21140625 -37.625 240.125 C-36.84527667 238.93039009 -36.06665451 237.73506081 -35.2890625 236.5390625 C-34.90524414 235.94899414 -34.52142578 235.35892578 -34.12597656 234.75097656 C-32.37424598 232.02690637 -30.68794056 229.2639186 -29 226.5 C-26.38921639 222.2319807 -23.72502756 218.00842311 -21 213.8125 C-15.93540604 206.00236896 -11.10035113 198.05167406 -6.23876953 190.11425781 C-1.15663849 181.8339404 4.02035566 173.61985618 9.30737305 165.46875 C12.67484927 160.23716256 15.73575121 154.90761934 18.67822266 149.42602539 C20.12922153 146.76282337 21.70075207 144.21586933 23.375 141.6875 C39.95691258 115.88121222 48.1585041 90.41490013 42.10546875 59.5 C39.51710871 48.00718604 33.73070002 37.56631901 27 28 C26.484375 27.24976562 25.96875 26.49953125 25.4375 25.7265625 C22.35484597 21.40763576 19.16173941 18.27626294 15 15 C14.278125 14.236875 13.55625 13.47375 12.8125 12.6875 C8.57419287 8.63756207 3.78261023 5.37546747 -1 2 C-0.67 1.34 -0.34 0.68 0 0 Z M46 25 C46 25.99 46 26.98 46 28 C48.3807468 29.1903734 49.83775707 29.12682203 52.49389648 29.12939453 C53.89060829 29.13412277 53.89060829 29.13412277 55.3155365 29.13894653 C56.32387039 29.1369223 57.33220428 29.13489807 58.37109375 29.1328125 C59.40436295 29.13376923 60.43763214 29.13472595 61.50221252 29.13571167 C63.6903591 29.13639304 65.87850769 29.13454173 68.06665039 29.13037109 C71.4201308 29.12502768 74.77347693 29.13031476 78.12695312 29.13671875 C80.2500003 29.13605785 82.37304738 29.13477646 84.49609375 29.1328125 C86.00555824 29.13584885 86.00555824 29.13584885 87.54551697 29.13894653 C88.47981033 29.13579437 89.4141037 29.13264221 90.37670898 29.12939453 C91.19896469 29.12859894 92.0212204 29.12780334 92.86839294 29.12698364 C95.18847939 29.0812032 95.18847939 29.0812032 98 28 C98.33 27.01 98.66 26.02 99 25 C96.50738682 22.50738682 95.7449321 22.74757248 92.30664062 22.74121094 C91.33223022 22.73490662 90.35781982 22.72860229 89.35388184 22.72210693 C88.29866333 22.7261554 87.24344482 22.73020386 86.15625 22.734375 C85.07621704 22.73246155 83.99618408 22.7305481 82.88342285 22.72857666 C80.59692146 22.72721393 78.31041236 22.73091648 76.02392578 22.73925781 C72.51447245 22.74995588 69.00553107 22.73936527 65.49609375 22.7265625 C63.2786447 22.72788408 61.06119597 22.73044644 58.84375 22.734375 C57.26092224 22.72830231 57.26092224 22.72830231 55.64611816 22.72210693 C54.18450256 22.73156342 54.18450256 22.73156342 52.69335938 22.74121094 C51.40335022 22.74359772 51.40335022 22.74359772 50.08728027 22.74603271 C47.77984918 22.80913513 47.77984918 22.80913513 46 25 Z M51 433 C50.66656449 435.45792029 50.66656449 435.45792029 51 438 C54.80857343 440.53904895 57.87138957 440.2708636 62.28125 440.23046875 C63.4960907 440.22978142 63.4960907 440.22978142 64.73547363 440.2290802 C66.44687364 440.22606079 68.15827097 440.21818375 69.86962891 440.20581055 C72.49000785 440.18756956 75.11003297 440.18530082 77.73046875 440.18554688 C79.39323222 440.18063083 81.0559933 440.17480214 82.71875 440.16796875 C83.89540222 440.16629951 83.89540222 440.16629951 85.0958252 440.16459656 C88.32015517 440.13645054 90.9196083 440.02679723 94 439 C94.67958603 436.60280568 94.67958603 436.60280568 95 434 C92.30223363 431.30223363 90.21230115 431.76154804 86.54795837 431.74775696 C85.66459305 431.75494247 84.78122772 431.76212799 83.87109375 431.76953125 C82.51383934 431.77021858 82.51383934 431.77021858 81.12916565 431.7709198 C79.21508473 431.7739433 77.30100631 431.7818325 75.38696289 431.79418945 C72.44603835 431.81244699 69.50542842 431.81469917 66.56445312 431.81445312 C64.70833059 431.81936814 62.85221021 431.82519638 60.99609375 431.83203125 C60.11070419 431.83314407 59.22531464 431.8342569 58.31309509 431.83540344 C54.33898506 431.46896956 54.33898506 431.46896956 51 433 Z " fill="#0F3241" transform="translate(179,27)"/>
<path d="M0 0 C2.24145508 1.17993164 2.24145508 1.17993164 4.51953125 2.66015625 C5.36878174 3.202771 6.21803223 3.74538574 7.09301758 4.30444336 C7.99044678 4.88460205 8.88787598 5.46476074 9.8125 6.0625 C27.64598186 17.32243279 45.75492331 25.12495814 66 31 C66.85207031 31.26554687 67.70414063 31.53109375 68.58203125 31.8046875 C75.52548389 33.87385772 82.55743269 34.96677093 89.71533203 35.99829102 C95.90242368 36.90242368 95.90242368 36.90242368 97 38 C97.1100866 40.09822385 97.14913849 42.20019397 97.16113281 44.30126953 C97.16609772 44.96007111 97.17106262 45.61887268 97.17617798 46.29763794 C97.1908589 48.49270664 97.19761834 50.68770261 97.203125 52.8828125 C97.20888033 54.41486614 97.21463802 55.94691977 97.22039795 57.47897339 C97.23093063 60.70554947 97.23675555 63.93210053 97.24023438 67.15869141 C97.24566391 71.2523574 97.26956081 75.34568138 97.29820633 79.43924141 C97.31704727 82.61384968 97.32204998 85.78838 97.32357025 88.9630394 C97.32655936 90.46901148 97.3344578 91.97498347 97.34775543 93.48089981 C97.63469005 128.53585334 82.53797519 161.32221858 58.98828125 186.82421875 C57.39293179 188.57001374 55.90064268 190.33288102 54.4375 192.1875 C48.81184625 198.67863895 41.83284471 203.8075943 34.9375 208.875 C34.11258057 209.48142334 33.28766113 210.08784668 32.43774414 210.71264648 C25.2140918 215.95778858 17.79906743 220.6641227 10 225 C9.01902344 225.5465625 8.03804688 226.093125 7.02734375 226.65625 C-0.45729235 230.62454013 -0.45729235 230.62454013 -5 230 C-7.635276 228.75307861 -10.06337026 227.47601212 -12.5625 226 C-13.26850342 225.59136719 -13.97450684 225.18273437 -14.7019043 224.76171875 C-25.16071553 218.64526108 -34.77454623 211.85871988 -44 204 C-44.7321875 203.3915625 -45.464375 202.783125 -46.21875 202.15625 C-50.97500329 198.13172798 -55.03707739 193.79962412 -59 189 C-59.6499292 188.23453857 -59.6499292 188.23453857 -60.31298828 187.45361328 C-76.02308303 168.92198338 -86.85069554 148.46751607 -93 125 C-93.309375 123.88882813 -93.61875 122.77765625 -93.9375 121.6328125 C-98.30230418 104.80313486 -97.15867189 86.71716764 -97.13037109 69.47436523 C-97.12493983 65.51867974 -97.13038225 61.56310424 -97.13671875 57.60742188 C-97.13605915 55.09374975 -97.13478046 52.58007769 -97.1328125 50.06640625 C-97.13483673 48.88325333 -97.13686096 47.7001004 -97.13894653 46.48109436 C-97.13579437 45.39493332 -97.13264221 44.30877228 -97.12939453 43.18969727 C-97.12859894 42.23281509 -97.12780334 41.27593292 -97.12698364 40.29005432 C-97 38 -97 38 -96 36 C-93.7253418 35.33325195 -93.7253418 35.33325195 -90.69921875 34.73828125 C-89.0299231 34.39603516 -89.0299231 34.39603516 -87.3269043 34.046875 C-86.12590088 33.80453125 -84.92489746 33.5621875 -83.6875 33.3125 C-71.70714624 30.772864 -60.38768977 27.47871914 -49 23 C-47.77667969 22.52949219 -46.55335938 22.05898437 -45.29296875 21.57421875 C-31.87930464 16.1321036 -19.09571374 8.93260112 -7.48046875 0.30078125 C-4.36479158 -1.3331093 -3.32899033 -0.94716302 0 0 Z " fill="#14A797" transform="translate(310,183)"/>
<path d="M0 0 C0.81726563 0.18820313 1.63453125 0.37640625 2.4765625 0.5703125 C21.22591775 5.41105513 37.98835868 19.86980942 48.21484375 35.890625 C51.00789412 40.75554424 53.13247759 45.71697082 55 51 C55.30808594 51.8353125 55.61617187 52.670625 55.93359375 53.53125 C61.65997745 71.28577935 60.22505281 93.38056752 52 110 C47.02327941 119.70938459 41.69298241 129.22402919 35.7109375 138.3515625 C33.72956113 141.41862456 31.86263263 144.54774227 30 147.6875 C25.3821613 155.44445411 20.59198571 163.09104305 15.79760742 170.73974609 C11.61273374 177.41654793 7.45164324 184.10726371 3.3125 190.8125 C-1.45391936 198.5306078 -6.2713377 206.21489776 -11.1315918 213.87426758 C-13.46696888 217.55699318 -15.7802419 221.24577824 -18 225 C-21.08875648 224.68901599 -22.59771969 224.42266015 -24.7734375 222.13671875 C-25.30195312 221.32847656 -25.83046875 220.52023438 -26.375 219.6875 C-26.97570312 218.77355469 -27.57640625 217.85960937 -28.1953125 216.91796875 C-30.53598653 213.13337244 -32.78801597 209.30640962 -35 205.4453125 C-37.35737586 201.38436423 -39.79575048 197.37790199 -42.25 193.375 C-42.71672119 192.61356689 -43.18344238 191.85213379 -43.66430664 191.06762695 C-44.62502642 189.50111861 -45.58604853 187.93479564 -46.54736328 186.36865234 C-49.35352388 181.79295989 -52.14780144 177.2099976 -54.94433594 172.62841797 C-60.24101702 163.95793653 -65.56410769 155.30380544 -70.9296875 146.67578125 C-83.15159454 126.99654284 -83.15159454 126.99654284 -88.6875 117.3125 C-89.06052246 116.68061768 -89.43354492 116.04873535 -89.81787109 115.39770508 C-96.27848162 103.85626265 -98.8319887 92.54390624 -98.59692383 79.48339844 C-98.56238239 77.36779641 -98.57641153 75.25635104 -98.59570312 73.140625 C-98.58465774 61.16969248 -95.77295533 50.53146822 -90.3125 39.875 C-89.80855713 38.87823242 -89.80855713 38.87823242 -89.29443359 37.86132812 C-86.02001222 31.62805605 -82.05186702 25.9470565 -77 21 C-76.34 21 -75.68 21 -75 21 C-74.67 20.01 -74.34 19.02 -74 18 C-71.74518789 16.09842216 -69.51081999 14.34696731 -67.125 12.625 C-66.44244141 12.13185303 -65.75988281 11.63870605 -65.05664062 11.13061523 C-59.62539896 7.29113536 -54.29798562 4.21563483 -48 2 C-46.96617188 1.61070313 -45.93234375 1.22140625 -44.8671875 0.8203125 C-30.97149882 -3.68723752 -14.03498978 -4.15621797 0 0 Z M-46.75 55.6875 C-52.81937273 63.62911991 -54.15993341 73.29764037 -53 83 C-51.03548135 91.58249084 -45.90957983 98.59403091 -38.69140625 103.6015625 C-36.5006514 104.86503326 -34.30673573 105.96609585 -32 107 C-31.071875 107.433125 -30.14375 107.86625 -29.1875 108.3125 C-19.21887912 110.4625947 -10.8664151 108.9842277 -2 104 C5.41231522 98.79200074 10.91488082 91.92551016 13 83 C14.14431301 73.14236379 11.89393633 65.2090854 7.125 56.625 C1.21841734 49.32863318 -7.77135076 43.84440858 -17.20703125 42.7421875 C-29.2191652 42.17468511 -38.40735638 47.53446192 -46.75 55.6875 Z " fill="#11A695" transform="translate(152,32)"/>
<path d="M0 0 C5.61 0.33 11.22 0.66 17 1 C17.04988283 8.82469786 17.08594587 16.6493007 17.10986328 24.47412109 C17.11870509 27.129476 17.13343775 29.78460755 17.15087891 32.43994141 C17.33259407 60.84095209 17.33259407 60.84095209 15 74 C14.83886719 74.97195313 14.67773438 75.94390625 14.51171875 76.9453125 C12.0244692 90.94612048 7.44777573 103.36773271 1 116 C0.64421875 116.71381836 0.2884375 117.42763672 -0.078125 118.16308594 C-16.06895962 149.92100282 -44.25088579 172.43221712 -75 189 C-75.98734131 189.56134644 -75.98734131 189.56134644 -76.99462891 190.1340332 C-79 191 -79 191 -83 191 C-83 185.06 -83 179.12 -83 173 C-80.64875 171.72125 -78.2975 170.4425 -75.875 169.125 C-65.2829504 163.23738057 -55.29116185 156.51818313 -46.453125 148.1796875 C-45 147 -45 147 -43 147 C-43 146.34 -43 145.68 -43 145 C-41.37287739 143.29470602 -39.69829243 141.63442907 -38 140 C-7.15444832 107.71631167 -0.70593537 69.4285947 -0.3125 26.1875 C-0.27923354 23.63344711 -0.24473575 21.07940994 -0.20898438 18.52539062 C-0.12517047 12.3503492 -0.0578688 6.17533681 0 0 Z " fill="#0F3442" transform="translate(390,220)"/>
<path d="M0 0 C20.81904176 -0.09355308 41.63804871 -0.16403295 62.45725822 -0.20724869 C72.12457187 -0.22785026 81.7917547 -0.2559248 91.45898438 -0.30175781 C99.88759359 -0.3416993 108.31610804 -0.36745029 116.74480927 -0.37635398 C121.20537752 -0.38155637 125.66567471 -0.39373348 130.12615585 -0.42292023 C134.33030112 -0.45020505 138.53406538 -0.45841879 142.73829079 -0.45243073 C144.27571627 -0.45352515 145.81315538 -0.46140105 147.35050392 -0.4768219 C160.0879158 -0.59824955 169.25184095 1.57190416 179 10 C179.61875 10.52464844 180.2375 11.04929687 180.875 11.58984375 C189.68868172 19.66272033 192.18147209 29.38144553 193 41 C193.35453725 50.16751282 193.25760931 59.34707334 193.23046875 68.51953125 C193.22927461 71.19081399 193.22877363 73.86208883 193.2290802 76.53337097 C193.22814907 82.10845316 193.21953719 87.68348031 193.20581055 93.25854492 C193.19005231 99.68203699 193.18481412 106.10546911 193.1855461 112.52897912 C193.18615848 118.74506819 193.18103636 124.96113803 193.17275429 131.1772213 C193.1695817 133.80735852 193.16760352 136.43749746 193.16686058 139.06763649 C193.16468436 142.74279353 193.15591362 146.41787655 193.14526367 150.09301758 C193.14571686 151.17010483 193.14617004 152.24719208 193.14663696 153.35691833 C193.12146921 159.31843804 192.77282541 165.08746407 192 171 C185.25 170.25 185.25 170.25 183 168 C188.75 168.875 188.75 168.875 191 170 C190.98616138 152.21412923 190.94377763 134.42856259 190.86790943 116.64284897 C190.83333532 108.3836144 190.8079139 100.12454542 190.80444336 91.86523438 C190.80139287 84.66188967 190.78075751 77.45884044 190.73947543 70.25560975 C190.71824144 66.44555268 190.70549483 62.63591465 190.71384621 58.82579803 C190.721448 55.23042944 190.70531944 51.63590558 190.67193985 48.04069138 C190.6599247 46.11072694 190.67221518 44.18065759 190.68556213 42.2507019 C190.53660203 30.77576967 187.27483982 21.32313857 179.23828125 12.96875 C175.49835888 9.67918477 171.48474154 7.1511115 167 5 C165.94055176 4.48543747 164.88110352 3.97087494 163.78955078 3.4407196 C157.3409836 1.06954383 150.45038667 1.6074236 143.6796875 1.65942383 C142.13172929 1.66027105 140.58376989 1.65979309 139.03581238 1.65809631 C134.85242844 1.65723866 130.66930468 1.67482691 126.48598099 1.69581819 C122.10712263 1.71462354 117.72825774 1.71633846 113.34936523 1.71989441 C105.06577964 1.72920356 96.78231339 1.753802 88.49878025 1.78394288 C79.06469193 1.81752211 69.63059778 1.83398175 60.19646454 1.84902918 C40.79757546 1.8803526 21.39879734 1.93309105 2 2 C2.33 2.66 2.66 3.32 3 4 C1.68 3.34 0.36 2.68 -1 2 C-0.67 1.34 -0.34 0.68 0 0 Z " fill="#C8D2D6" transform="translate(179,27)"/>
<path d="M0 0 C0 3.48258702 -0.76381522 4.65735204 -2.52734375 7.61328125 C-3.33812378 8.98045288 -3.33812378 8.98045288 -4.1652832 10.37524414 C-4.75011475 11.34453857 -5.33494629 12.31383301 -5.9375 13.3125 C-6.53071045 14.30564209 -7.1239209 15.29878418 -7.73510742 16.32202148 C-11.60725045 22.77454511 -15.57040648 29.15544242 -19.70703125 35.44140625 C-20.04026303 35.97131196 -20.37349482 36.50121767 -20.71682453 37.04718113 C-21.73648963 38.59897298 -22.82659786 40.10442766 -23.93920422 41.59099483 C-30.26394135 50.63729809 -31.13969405 58.23889659 -30.98754883 69.07446289 C-30.99349178 70.75148515 -31.00288431 72.42849813 -31.01542664 74.10548401 C-31.03890316 78.62247564 -31.01276996 83.13789541 -30.97580934 87.65474629 C-30.94416777 92.40299877 -30.95438612 97.15119026 -30.95866394 101.89952087 C-30.95949084 109.86922747 -30.92880109 117.83832486 -30.87817383 125.80786133 C-30.8201033 134.99612141 -30.80782701 144.18355009 -30.8210333 153.37196547 C-30.83307031 162.24554543 -30.81657536 171.11884003 -30.78589439 179.9923687 C-30.77314087 183.75325519 -30.76947222 187.51398388 -30.77317238 191.27488899 C-30.7759534 195.71008407 -30.75335738 200.14447853 -30.71188545 204.5794735 C-30.70056893 206.19825198 -30.69749736 207.81711453 -30.70369339 209.43592072 C-30.74717053 223.18258472 -28.11901494 233.70872447 -18.34375 243.875 C-15.13827851 246.78129416 -11.76546989 248.90901672 -8 251 C-6.65064926 251.97827929 -5.30674304 252.96549509 -4 254 C-11.81683255 253.18383072 -17.60865933 248.6141803 -22.90234375 242.97265625 C-32.12984343 231.11543656 -33.30296481 219.45666651 -33.32226562 204.84448242 C-33.33153452 203.20599426 -33.34158551 201.56751036 -33.35235596 199.92903137 C-33.37848272 195.49502514 -33.39146934 191.0610793 -33.40037727 186.6270082 C-33.40625684 183.85224022 -33.41446967 181.07748843 -33.42338562 178.30272865 C-33.45070014 169.60758681 -33.47005217 160.91248235 -33.4777894 152.21730059 C-33.48675027 142.20439366 -33.52185848 132.19203284 -33.57979059 122.1792919 C-33.62310536 114.42189912 -33.64320216 106.66465958 -33.64587164 98.90714723 C-33.64796145 94.28169179 -33.65964118 89.65675093 -33.69551086 85.03142357 C-33.72861566 80.67843701 -33.73271594 76.32634802 -33.71523285 71.97327995 C-33.7136998 70.38304987 -33.7222759 68.79277006 -33.74214935 67.20266342 C-33.85778859 57.36727245 -32.69243053 50.23619937 -27 42 C-26.24021649 40.77465745 -25.48218536 39.54822514 -24.7265625 38.3203125 C-24.03304687 37.26585937 -23.33953125 36.21140625 -22.625 35.125 C-21.84527667 33.93039009 -21.06665451 32.73506081 -20.2890625 31.5390625 C-19.90524414 30.94899414 -19.52142578 30.35892578 -19.12597656 29.75097656 C-17.37424598 27.02690637 -15.68794056 24.2639186 -14 21.5 C-11.07192158 16.71609722 -8.09173731 11.97019912 -5.0625 7.25 C-4.67255859 6.64091797 -4.28261719 6.03183594 -3.88085938 5.40429688 C-1.12392893 1.12392893 -1.12392893 1.12392893 0 0 Z " fill="#B4C2C6" transform="translate(164,232)"/>
<path d="M0 0 C-2.68739872 0.79201177 -5.37491563 1.58361866 -8.0625 2.375 C-8.81466797 2.59671875 -9.56683594 2.8184375 -10.34179688 3.046875 C-11.08623047 3.26601562 -11.83066406 3.48515625 -12.59765625 3.7109375 C-13.33773926 3.92975586 -14.07782227 4.14857422 -14.84033203 4.37402344 C-16.228074 4.77625839 -17.61952371 5.16602695 -19.01513672 5.54003906 C-22.13826453 6.37977508 -24.27132884 7.18088589 -27 9 C-27.66 9 -28.32 9 -29 9 C-29 31.77 -29 54.54 -29 78 C-28.01 78.33 -27.02 78.66 -26 79 C-25.81824219 80.03898437 -25.63648438 81.07796875 -25.44921875 82.1484375 C-24.18095339 89.23575271 -22.88024214 96.15128971 -20.55078125 102.984375 C-20 105 -20 105 -20 109 C-19.34 109 -18.68 109 -18 109 C-17.87882813 109.63808594 -17.75765625 110.27617187 -17.6328125 110.93359375 C-17.46523437 111.75988281 -17.29765625 112.58617187 -17.125 113.4375 C-16.96257812 114.26121094 -16.80015625 115.08492188 -16.6328125 115.93359375 C-16.42398438 116.61550781 -16.21515625 117.29742187 -16 118 C-15.34 118.33 -14.68 118.66 -14 119 C-13.50301177 120.62885736 -13.07529693 122.27925178 -12.6875 123.9375 C-11.65479004 128.09888686 -11.65479004 128.09888686 -8.3125 130.625 C-7.549375 130.74875 -6.78625 130.8725 -6 131 C-6.33 131.99 -6.66 132.98 -7 134 C-7.66 134 -8.32 134 -9 134 C-7.02 136.97 -5.04 139.94 -3 143 C-3.33 143.66 -3.66 144.32 -4 145 C-16.18337815 129.05583631 -23.94759466 110.9159007 -28.8125 91.5625 C-29.0197168 90.76553711 -29.22693359 89.96857422 -29.44042969 89.14746094 C-33.30114798 72.77358823 -32.1577723 55.16907437 -32.13037109 38.47436523 C-32.12493983 34.51867974 -32.13038225 30.56310424 -32.13671875 26.60742188 C-32.13605915 24.09374975 -32.13478046 21.58007769 -32.1328125 19.06640625 C-32.13483673 17.88325333 -32.13686096 16.7001004 -32.13894653 15.48109436 C-32.13579437 14.39493332 -32.13264221 13.30877228 -32.12939453 12.18969727 C-32.12859894 11.23281509 -32.12780334 10.27593292 -32.12698364 9.29005432 C-32 7 -32 7 -31 5 C-26.64491292 3.63296436 -22.14619728 2.78079144 -17.6875 1.8125 C-15.81288086 1.38420898 -15.81288086 1.38420898 -13.90039062 0.94726562 C-12.09924805 0.54991211 -12.09924805 0.54991211 -10.26171875 0.14453125 C-9.15787842 -0.09934326 -8.05403809 -0.34321777 -6.91674805 -0.59448242 C-4.17280383 -0.97597496 -2.57713478 -0.91562794 0 0 Z " fill="#63BCB3" transform="translate(245,214)"/>
<path d="M0 0 C0.495 0.99 0.495 0.99 1 2 C-0.25185557 4.4598962 -1.56616083 6.77228255 -3 9.125 C-3.44496826 9.86782227 -3.88993652 10.61064453 -4.34838867 11.37597656 C-9.52177863 19.9618629 -14.86297922 28.44592272 -20.1953125 36.93359375 C-23.71913522 42.54372628 -27.20833524 48.17459861 -30.6875 53.8125 C-35.45379389 61.53068386 -40.27133887 69.21489961 -45.1315918 76.87426758 C-47.46696888 80.55699318 -49.7802419 84.24577824 -52 88 C-55.08875648 87.68901599 -56.59771969 87.42266015 -58.7734375 85.13671875 C-59.30195312 84.32847656 -59.83046875 83.52023438 -60.375 82.6875 C-60.97570312 81.77355469 -61.57640625 80.85960937 -62.1953125 79.91796875 C-64.53598653 76.13337244 -66.78801597 72.30640962 -69 68.4453125 C-72.72457038 62.02915806 -76.64411577 55.7303337 -80.52539062 49.40820312 C-82.03848099 46.93715621 -83.54368821 44.46145745 -85.046875 41.984375 C-85.54155273 41.17049316 -86.03623047 40.35661133 -86.54589844 39.51806641 C-87.49337824 37.95876537 -88.43941456 36.39858603 -89.38378906 34.83740234 C-91.1156405 31.99184719 -92.77842604 29.27419778 -94.875 26.6796875 C-95.24625 26.12539062 -95.6175 25.57109375 -96 25 C-95.505 23.515 -95.505 23.515 -95 22 C-90.98660001 28.32490824 -86.98902735 34.65969463 -83 41 C-82.39140137 41.96647461 -81.78280273 42.93294922 -81.15576172 43.92871094 C-79.3486676 46.80343799 -77.54839223 49.68232298 -75.75 52.5625 C-74.89112183 53.92701294 -74.89112183 53.92701294 -74.01489258 55.3190918 C-73.48919678 56.16383057 -72.96350098 57.00856934 -72.421875 57.87890625 C-71.95362305 58.6272876 -71.48537109 59.37566895 -71.00292969 60.14672852 C-70 62 -70 62 -70 64 C-68.68 64.33 -67.36 64.66 -66 65 C-66 65.99 -66 66.98 -66 68 C-65.34 68 -64.68 68 -64 68 C-62.7109375 69.64453125 -62.7109375 69.64453125 -61.375 71.8125 C-60.92898437 72.52019531 -60.48296875 73.22789062 -60.0234375 73.95703125 C-59 76 -59 76 -59 79 C-58.34 79 -57.68 79 -57 79 C-55.375 81 -55.375 81 -54 83 C-53.38125 81.865625 -52.7625 80.73125 -52.125 79.5625 C-50.25 76.125 -50.25 76.125 -48 75 C-46.93738621 73.11732556 -45.94780772 71.19300583 -45 69.25 C-44.2265625 67.67992187 -44.2265625 67.67992187 -43.4375 66.078125 C-42.19292234 63.41310545 -41.05686831 60.74379273 -40 58 C-39.34 58 -38.68 58 -38 58 C-37.71125 57.195625 -37.4225 56.39125 -37.125 55.5625 C-36 53 -36 53 -34 52 C-33.67 51.01 -33.34 50.02 -33 49 C-31.68 49 -30.36 49 -29 49 C-28.66162109 48.02160156 -28.66162109 48.02160156 -28.31640625 47.0234375 C-26.55601335 42.98027991 -24.26782984 39.36154967 -21.9375 35.625 C-20.94083897 34.01206914 -19.94475383 32.39878231 -18.94921875 30.78515625 C-18.45212402 29.98094238 -17.9550293 29.17672852 -17.44287109 28.34814453 C-15.34745469 24.93804048 -13.29778979 21.50133439 -11.25 18.0625 C-7.61262319 11.96859709 -3.85359448 5.96006091 0 0 Z " fill="#82CDC4" transform="translate(186,169)"/>
<path d="M0 0 C0.81726563 0.18820313 1.63453125 0.37640625 2.4765625 0.5703125 C21.22591775 5.41105513 37.98835868 19.86980942 48.21484375 35.890625 C51.00789412 40.75554424 53.13247759 45.71697082 55 51 C55.30808594 51.8353125 55.61617187 52.670625 55.93359375 53.53125 C61.74043228 71.53522784 59.94721806 93.06700698 52 110 C50.4298613 113.06347713 48.78666713 116.05770136 47 119 C46.67 118.34 46.34 117.68 46 117 C46.81993291 115.02917945 47.73381144 113.09718629 48.6875 111.1875 C49.79939405 108.79524311 50.90364623 106.39941864 52 104 C52.42667969 103.07574219 52.85335937 102.15148437 53.29296875 101.19921875 C59.01215189 86.27153136 58.45351162 65.57312591 52 51 C51.62617188 49.99582031 51.25234375 48.99164063 50.8671875 47.95703125 C43.97915091 29.96146546 32.29304878 18.55989729 16 9 C15.28070313 8.56816406 14.56140625 8.13632812 13.8203125 7.69140625 C-1.49153209 -0.7531089 -22.08181051 -2.59111924 -38.9375 1.6875 C-48.20728892 4.50701958 -56.3476602 8.20980308 -64.22265625 13.86328125 C-66 15 -66 15 -68 15 C-68 15.66 -68 16.32 -68 17 C-68.78375 17.2475 -69.5675 17.495 -70.375 17.75 C-73.49264619 19.23459342 -73.55481245 20.00639722 -75 23 C-76.04703991 24.26022587 -77.13368091 25.48821125 -78.25 26.6875 C-82.9587863 31.94679159 -86.94276142 37.62716465 -90 44 C-91 41 -91 41 -90.06640625 38.87109375 C-86.18470154 32.58978977 -82.08614473 26.38398204 -77 21 C-76.34 21 -75.68 21 -75 21 C-74.67 20.01 -74.34 19.02 -74 18 C-71.74518789 16.09842216 -69.51081999 14.34696731 -67.125 12.625 C-66.44244141 12.13185303 -65.75988281 11.63870605 -65.05664062 11.13061523 C-59.62539896 7.29113536 -54.29798562 4.21563483 -48 2 C-46.96617188 1.61070313 -45.93234375 1.22140625 -44.8671875 0.8203125 C-30.97149882 -3.68723752 -14.03498978 -4.15621797 0 0 Z " fill="#C2F1ED" transform="translate(152,32)"/>
<path d="M0 0 C0.66 0.99 1.32 1.98 2 3 C2 2.34 2 1.68 2 1 C2.99 1.33 3.98 1.66 5 2 C4.67 4.31 4.34 6.62 4 9 C3.34 8.67 2.68 8.34 2 8 C2.04125 8.78375 2.0825 9.5675 2.125 10.375 C2 13 2 13 0 15 C-0.33 15.99 -0.66 16.98 -1 18 C-1.66 18 -2.32 18 -3 18 C-3.495 17.01 -3.495 17.01 -4 16 C-5.59654419 16.00785522 -5.59654419 16.00785522 -7.2253418 16.01586914 C-11.18561966 16.0340105 -15.14589386 16.04546537 -19.10620117 16.05493164 C-20.81812152 16.05995099 -22.53003761 16.06676785 -24.24194336 16.07543945 C-26.70687922 16.08761021 -29.17175825 16.09325238 -31.63671875 16.09765625 C-32.77919319 16.10539818 -32.77919319 16.10539818 -33.94474792 16.11329651 C-37.73916068 16.11369435 -41.34880778 16.09931571 -45 15 C-47.49190892 12.09277293 -48.03858767 10.65599042 -47.8125 6.8125 C-47 4 -47 4 -45 2 C-41.94191283 1.76596657 -38.96778478 1.65035914 -35.90625 1.62109375 C-34.5525531 1.59560204 -34.5525531 1.59560204 -33.17150879 1.56959534 C-30.28107743 1.5163517 -27.39066089 1.47612211 -24.5 1.4375 C-21.60941351 1.39360147 -18.71893975 1.34690612 -15.82849121 1.29469299 C-14.02787706 1.26269418 -12.22716344 1.23581714 -10.4263916 1.21446228 C-6.76650415 1.1538278 -3.43722938 0 0 0 Z M-46 5 C-46.33343551 7.45792029 -46.33343551 7.45792029 -46 10 C-42.19142657 12.53904895 -39.12861043 12.2708636 -34.71875 12.23046875 C-33.5039093 12.22978142 -33.5039093 12.22978142 -32.26452637 12.2290802 C-30.55312636 12.22606079 -28.84172903 12.21818375 -27.13037109 12.20581055 C-24.50999215 12.18756956 -21.88996703 12.18530082 -19.26953125 12.18554688 C-17.60676778 12.18063083 -15.9440067 12.17480214 -14.28125 12.16796875 C-13.10459778 12.16629951 -13.10459778 12.16629951 -11.9041748 12.16459656 C-8.67984483 12.13645054 -6.0803917 12.02679723 -3 11 C-2.32041397 8.60280568 -2.32041397 8.60280568 -2 6 C-4.69776637 3.30223363 -6.78769885 3.76154804 -10.45204163 3.74775696 C-11.33540695 3.75494247 -12.21877228 3.76212799 -13.12890625 3.76953125 C-14.48616066 3.77021858 -14.48616066 3.77021858 -15.87083435 3.7709198 C-17.78491527 3.7739433 -19.69899369 3.7818325 -21.61303711 3.79418945 C-24.55396165 3.81244699 -27.49457158 3.81469917 -30.43554688 3.81445312 C-32.29166941 3.81936814 -34.14778979 3.82519638 -36.00390625 3.83203125 C-36.88929581 3.83314407 -37.77468536 3.8342569 -38.68690491 3.83540344 C-42.66101494 3.46896956 -42.66101494 3.46896956 -46 5 Z " fill="#7D8F95" transform="translate(276,455)"/>
<path d="M0 0 C0.99 0.33 1.98 0.66 3 1 C3.07007435 8.71156792 3.12309858 16.4230587 3.15543652 24.13486671 C3.17097142 27.71730568 3.19198112 31.29952394 3.22631836 34.88183594 C3.25935394 38.35078415 3.27694403 41.81952258 3.28463173 45.28861618 C3.29272382 47.23029257 3.31606891 49.17188671 3.33988953 51.11343384 C3.3427398 66.4622076 0.85011845 77.98445877 -10.08984375 89.12890625 C-13.71945826 92.46592228 -17.33074857 95.26260412 -22 97 C-23.485 96.505 -23.485 96.505 -25 96 C-24.1646875 95.58041016 -24.1646875 95.58041016 -23.3125 95.15234375 C-12.96625482 89.71706968 -5.17071124 82.98665584 -1.39526367 71.67431641 C0.56895975 64.8728983 0.47998891 58.05002996 0.51171875 51.0234375 C0.52859981 49.60281864 0.54675455 48.18221441 0.56611633 46.7616272 C0.61325135 43.0562599 0.64329496 39.3509519 0.66955566 35.64538574 C0.69954745 31.85071098 0.74601283 28.05623992 0.79101562 24.26171875 C0.87663233 16.84124775 0.94416048 9.42076124 1 2 C-0.7664009 3.44485245 -2.53274801 4.88977065 -4.29907227 6.3347168 C-5.28271255 7.1393486 -6.26635284 7.94398041 -7.27980042 8.772995 C-8.7860188 10.00612359 -10.29144729 11.24022588 -11.79356384 12.47834778 C-22.9278033 21.61417384 -35.74623602 30.28469838 -49 36 C-49.66 35.67 -50.32 35.34 -51 35 C-50.40687012 34.65855957 -49.81374023 34.31711914 -49.20263672 33.96533203 C-33.24058389 24.74397966 -18.45315015 15.25378542 -4.546875 3.15234375 C-2 1 -2 1 0 0 Z " fill="#CAD5D9" transform="translate(369,389)"/>
<path d="M0 0 C8.20071193 0.08564712 17.61972497 1.70501729 24.1875 6.9375 C26.3125 9.3125 26.3125 9.3125 26.3125 11.3125 C26.910625 11.539375 27.50875 11.76625 28.125 12 C32.73452497 14.76571498 34.31321228 20.06071108 35.74609375 25.01953125 C37.2256075 33.62111806 37.45160516 43.80783189 35.3125 52.3125 C33.3325 52.8075 33.3325 52.8075 31.3125 53.3125 C31.5290625 52.72984375 31.745625 52.1471875 31.96875 51.546875 C35.72242931 40.49437481 35.31056268 30.89368287 30.3125 20.3125 C25.71485586 11.99761165 18.82401027 8.70880881 10.4375 5.0625 C1.75827803 2.97948673 -5.71999455 4.4360939 -13.6875 8.3125 C-18.60261629 11.36355008 -22.73484257 15.11280148 -26.6875 19.3125 C-26.6875 17.6625 -26.6875 16.0125 -26.6875 14.3125 C-25.6975 14.3125 -24.7075 14.3125 -23.6875 14.3125 C-23.6875 13.3225 -23.6875 12.3325 -23.6875 11.3125 C-22.6975 11.3125 -21.7075 11.3125 -20.6875 11.3125 C-20.6875 9.9925 -20.6875 8.6725 -20.6875 7.3125 C-17.84195404 4.46019502 -14.8514399 3.6233639 -11 2.6875 C-0.1026152 0.00284626 -0.1026152 0.00284626 0 0 Z " fill="#6DC2B7" transform="translate(129.6875,71.6875)"/>
<path d="M0 0 C-3 1 -3 1 -4.90234375 0.1875 C-5.59457031 -0.204375 -6.28679687 -0.59625 -7 -1 C-13.10811273 -3.78730278 -18.90122563 -5.55731795 -25.5546875 -6.5078125 C-28 -7 -28 -7 -29.76171875 -8.0390625 C-33.38004126 -9.59247845 -37.04561713 -9.28751212 -40.9375 -9.25 C-42.13536133 -9.26160156 -42.13536133 -9.26160156 -43.35742188 -9.2734375 C-47.73884315 -9.25891746 -50.97718627 -8.89564244 -55 -7 C-57.32597511 -6.6186926 -59.65912158 -6.27539746 -62 -6 C-62 -5.01 -62 -4.02 -62 -3 C-64.31 -3.33 -66.62 -3.66 -69 -4 C-70.20628008 -1.66785852 -71.1654738 0.49642139 -72 3 C-73.65 3.33 -75.3 3.66 -77 4 C-77 3.01 -77 2.02 -77 1 C-77.66 1 -78.32 1 -79 1 C-79.33 1.99 -79.66 2.98 -80 4 C-81.65 4.33 -83.3 4.66 -85 5 C-84.44007586 2.20037932 -83.61982579 0.46847298 -81.3203125 -1.26953125 C-55.31515435 -16.2725071 -25.63383166 -15.72985125 0 0 Z " fill="#1EA695" transform="translate(173,43)"/>
<path d="M0 0 C0.33 0 0.66 0 1 0 C0.11036015 7.62548441 0.11036015 7.62548441 -0.50927734 9.72827148 C-1.6707132 15.10496834 -1.18482218 20.83636143 -1.1875 26.3125 C-1.19974609 27.61896484 -1.21199219 28.92542969 -1.22460938 30.27148438 C-1.22654297 31.53927734 -1.22847656 32.80707031 -1.23046875 34.11328125 C-1.23457764 35.26610596 -1.23868652 36.41893066 -1.24291992 37.60668945 C-0.97321799 41.37411368 -0.15119844 44.41465991 1 48 C1.66 48 2.32 48 3 48 C3.16435547 48.95712891 3.16435547 48.95712891 3.33203125 49.93359375 C3.49058594 50.75988281 3.64914063 51.58617187 3.8125 52.4375 C3.96332031 53.26121094 4.11414062 54.08492187 4.26953125 54.93359375 C4.51058594 55.61550781 4.75164063 56.29742187 5 57 C5.99 57.33 6.98 57.66 8 58 C9.17578125 60.44140625 9.17578125 60.44140625 10.3125 63.5625 C12.4673303 69.04454547 14.97407186 73.66830517 19 78 C19.33 78 19.66 78 20 78 C21.04606811 81.06348517 22.01865628 84.07743763 22.77734375 87.2265625 C24.18830726 91.58116553 26.22533147 94.98795692 28.6875 98.8125 C30.20970292 101.1816429 31.62669388 103.53639011 33 106 C32.67 106.66 32.34 107.32 32 108 C23.78106934 95.12984169 15.72175093 82.17547348 8 69 C7.62439941 68.36304199 7.24879883 67.72608398 6.86181641 67.06982422 C-0.46429232 54.54005931 -3.67870186 42.92358048 -3.46655273 28.46948242 C-3.43738219 26.30375302 -3.44603864 24.14045518 -3.45898438 21.97460938 C-3.44543478 14.25894038 -2.88207677 7.25844174 0 0 Z " fill="#8DD2CB" transform="translate(57,83)"/>
<path d="M0 0 C20.81904176 -0.09355308 41.63804871 -0.16403295 62.45725822 -0.20724869 C72.12457187 -0.22785026 81.7917547 -0.2559248 91.45898438 -0.30175781 C99.88759359 -0.3416993 108.31610804 -0.36745029 116.74480927 -0.37635398 C121.20537752 -0.38155637 125.66567471 -0.39373348 130.12615585 -0.42292023 C134.33030112 -0.45020505 138.53406538 -0.45841879 142.73829079 -0.45243073 C144.27571627 -0.45352515 145.81315538 -0.46140105 147.35050392 -0.4768219 C160.0879158 -0.59824955 169.25184095 1.57190416 179 10 C179.61875 10.52464844 180.2375 11.04929687 180.875 11.58984375 C187.9823906 18.09984591 191.41125583 25.57611594 191.95703125 35.1640625 C191.97121094 35.76992188 191.98539063 36.37578125 192 37 C191.67 37 191.34 37 191 37 C190.67128906 35.74896484 190.67128906 35.74896484 190.3359375 34.47265625 C186.89374745 22.25707936 181.61295681 13.00692971 170.40625 6.4921875 C164.19075455 3.29303543 159.58860828 1.8741305 152.55865479 1.87974548 C151.91411937 1.87889106 151.26958395 1.87803663 150.60551715 1.87715632 C148.44824608 1.87551068 146.29105296 1.88100786 144.13378906 1.88647461 C142.58642071 1.8867567 141.03905223 1.88659831 139.49168396 1.8860321 C135.29162984 1.885745 131.09160423 1.89162769 126.89155674 1.89860606 C122.50198575 1.90485407 118.11241411 1.90544455 113.72283936 1.90663147 C105.41083873 1.90974051 97.09885125 1.91794815 88.78685641 1.92798096 C79.32382579 1.93915534 69.86079454 1.94465589 60.39775896 1.94967639 C40.93183186 1.96013111 21.46591698 1.9777223 2 2 C2.33 2.66 2.66 3.32 3 4 C1.68 3.34 0.36 2.68 -1 2 C-0.67 1.34 -0.34 0.68 0 0 Z " fill="#D1DEE3" transform="translate(179,27)"/>
<path d="M0 0 C1 3 1 3 -0.4375 6.375 C-3.34275432 13.6919368 -3.0706836 21.94639588 -0.4375 29.3125 C3.55901068 37.92036915 9.46367679 43.09542253 18 47 C18.928125 47.433125 19.85625 47.86625 20.8125 48.3125 C30.80232895 50.46716899 39.0939967 48.9363231 48 44 C50.56646042 42.19191707 52.80135942 40.23538667 55 38 C55.804375 37.21625 56.60875 36.4325 57.4375 35.625 C57.953125 35.08875 58.46875 34.5525 59 34 C58.71125 34.70125 58.4225 35.4025 58.125 36.125 C56.9371807 39.03060307 56.9371807 39.03060307 56.0625 42.25 C55.5365625 43.61125 55.5365625 43.61125 55 45 C54.01 45.33 53.02 45.66 52 46 C52 46.99 52 47.98 52 49 C50.01432292 49.48828125 48.02864583 49.9765625 46.04296875 50.46484375 C44.34316798 50.91010705 42.66698046 51.44433985 41 52 C28.48255482 53.09802151 17.08546847 51.01665442 7 43 C5.66666667 41.66666667 4.33333333 40.33333333 3 39 C2.34 38.731875 1.68 38.46375 1 38.1875 C-2.21953439 36.27590145 -3.70326361 33.40508535 -5 30 C-5.4275607 26.50219717 -5.24557007 23.13314382 -5 19.625 C-4.96777344 18.73039062 -4.93554688 17.83578125 -4.90234375 16.9140625 C-4.5425483 10.5669017 -2.95568039 5.61407432 0 0 Z " fill="#9BDED7" transform="translate(102,91)"/>
<path d="M0 0 C0.99 0.33 1.98 0.66 3 1 C-4.06136132 8.014905 -12.50129448 12.94353747 -21 18 C-21.65468262 18.39268066 -22.30936523 18.78536133 -22.98388672 19.18994141 C-27.75789835 22 -27.75789835 22 -30 22 C-30 27.94 -30 33.88 -30 40 C-29.01 40.495 -29.01 40.495 -28 41 C-35.91975714 40.02266827 -41.42189466 37.40821027 -48 33 C-48.96035156 32.38769531 -49.92070312 31.77539062 -50.91015625 31.14453125 C-59.74692514 25.43198775 -68.59866467 19.46102424 -75 11 C-72.11111598 12.31541778 -69.9969482 13.77135885 -67.6875 15.9375 C-64.3831942 18.85264773 -61.1230491 20.39659202 -57 22 C-54.0625 23.5625 -54.0625 23.5625 -52 25 C-52 25.66 -52 26.32 -52 27 C-51.34 27 -50.68 27 -50 27 C-49.17242187 28.16595703 -49.17242187 28.16595703 -48.328125 29.35546875 C-45.36664776 32.71942863 -43.05788889 33.23552778 -38.75 34.3125 C-37.48671875 34.63863281 -36.2234375 34.96476562 -34.921875 35.30078125 C-33.95765625 35.53152344 -32.9934375 35.76226562 -32 36 C-31.90912109 34.30230469 -31.90912109 34.30230469 -31.81640625 32.5703125 C-31.73200083 31.08852855 -31.64735283 29.6067584 -31.5625 28.125 C-31.52318359 27.37863281 -31.48386719 26.63226563 -31.44335938 25.86328125 C-31.11328125 20.2265625 -31.11328125 20.2265625 -30 18 C-28.03307359 17.47548629 -26.06344477 16.95772309 -24.078125 16.5078125 C-21.60847223 15.90432592 -19.32673617 15.01794707 -17 14 C-17 13.01 -17 12.02 -17 11 C-14 9 -14 9 -10 9 C-10 8.34 -10 7.68 -10 7 C-9.01 7 -8.02 7 -7 7 C-6.67 6.01 -6.34 5.02 -6 4 C-5.01 4 -4.02 4 -3 4 C-3 3.34 -3 2.68 -3 2 C-2.01 2 -1.02 2 0 2 C0 1.34 0 0.68 0 0 Z " fill="#2A9B94" transform="translate(337,371)"/>
<path d="M0 0 C0.33 0 0.66 0 1 0 C1.00146656 0.84961178 1.00293312 1.69922356 1.00444412 2.57458115 C1.04155631 23.28333336 1.10062949 43.99192248 1.18390274 64.70054245 C1.22364861 74.71524053 1.25606369 84.72986054 1.27099609 94.74462891 C1.28403572 103.47732047 1.31105923 112.20983993 1.35461307 120.94243455 C1.37717599 125.56284707 1.39291379 130.18304771 1.39188385 134.8035202 C1.39113417 139.16043188 1.40920759 143.51687613 1.44116783 147.87366676 C1.44962419 149.46503629 1.45144603 151.05645851 1.44580269 152.6478405 C1.39854493 168.03428452 4.68617864 180.19193663 15.25 191.75 C19.24122472 195.59772001 23.9618994 197.80026593 29 200 C27.27734375 200.66796875 27.27734375 200.66796875 25 201 C21.7408022 199.39663793 18.91988075 197.15176797 16 195 C15.13375 194.4225 14.2675 193.845 13.375 193.25 C4.57920515 184.91714172 0.06495328 174.21078131 -0.43945742 162.12846887 C-0.51328441 158.45190768 -0.4896661 154.77917056 -0.45410156 151.10229492 C-0.45297062 149.44522631 -0.45361174 147.78815571 -0.45587158 146.13108826 C-0.45701006 141.67314273 -0.43364272 137.21563571 -0.40557575 132.75779128 C-0.38041612 128.08401883 -0.3782087 123.41023415 -0.37347412 118.73640442 C-0.36108685 109.90399912 -0.32832329 101.07179401 -0.28807616 92.2394765 C-0.24322552 82.17651697 -0.22133811 72.11354742 -0.20129442 62.05051267 C-0.15958648 41.36689711 -0.08931784 20.68346121 0 0 Z " fill="#FFFFFF" transform="translate(131,285)"/>
<path d="M0 0 C-2.68739872 0.79201177 -5.37491563 1.58361866 -8.0625 2.375 C-8.81466797 2.59671875 -9.56683594 2.8184375 -10.34179688 3.046875 C-11.08623047 3.26601562 -11.83066406 3.48515625 -12.59765625 3.7109375 C-13.33773926 3.92975586 -14.07782227 4.14857422 -14.84033203 4.37402344 C-16.228074 4.77625839 -17.61952371 5.16602695 -19.01513672 5.54003906 C-22.13826453 6.37977508 -24.27132884 7.18088589 -27 9 C-27.66 9 -28.32 9 -29 9 C-29.02329637 17.78922968 -29.04100247 26.57844853 -29.05181217 35.36770248 C-29.05700348 39.45006155 -29.06403194 43.53239929 -29.07543945 47.61474609 C-29.08640298 51.56347103 -29.092305 55.51217562 -29.09487724 59.46091461 C-29.09670746 60.95818654 -29.10028067 62.45545751 -29.10573006 63.95272064 C-29.13620371 72.68258254 -28.91127281 81.31052201 -28 90 C-36.10754653 77.83868021 -32.15333019 52.46263543 -32.13037109 38.47436523 C-32.12493983 34.51867974 -32.13038225 30.56310424 -32.13671875 26.60742188 C-32.13605915 24.09374975 -32.13478046 21.58007769 -32.1328125 19.06640625 C-32.13483673 17.88325333 -32.13686096 16.7001004 -32.13894653 15.48109436 C-32.13579437 14.39493332 -32.13264221 13.30877228 -32.12939453 12.18969727 C-32.12859894 11.23281509 -32.12780334 10.27593292 -32.12698364 9.29005432 C-32 7 -32 7 -31 5 C-26.64491292 3.63296436 -22.14619728 2.78079144 -17.6875 1.8125 C-15.81288086 1.38420898 -15.81288086 1.38420898 -13.90039062 0.94726562 C-12.09924805 0.54991211 -12.09924805 0.54991211 -10.26171875 0.14453125 C-9.15787842 -0.09934326 -8.05403809 -0.34321777 -6.91674805 -0.59448242 C-4.17280383 -0.97597496 -2.57713478 -0.91562794 0 0 Z " fill="#C4EBE7" transform="translate(245,214)"/>
<path d="M0 0 C0.33 0 0.66 0 1 0 C0.89671088 26.33872435 -15.22534426 51.01146371 -32.6796875 69.46875 C-35.08860378 71.96679022 -35.08860378 71.96679022 -37 75 C-37.66 75 -38.32 75 -39 75 C-39 75.66 -39 76.32 -39 77 C-40.96147874 78.38938077 -42.96166576 79.7260411 -45 81 C-44.4548447 76.90655322 -42.29134623 74.73644931 -39.5625 71.75 C-38.75941406 70.85796875 -37.95632813 69.9659375 -37.12890625 69.046875 C-35 67 -35 67 -33 67 C-32.34 65.68 -31.68 64.36 -31 63 C-30.01 63 -29.02 63 -28 63 C-27.89429688 62.43410156 -27.78859375 61.86820312 -27.6796875 61.28515625 C-26.88585058 58.61622179 -25.6892764 56.73721978 -24.125 54.4375 C-23.61195313 53.67308594 -23.09890625 52.90867187 -22.5703125 52.12109375 C-21 50 -21 50 -19.34765625 48.359375 C-17.67935337 46.67656514 -17.39680023 45.30144135 -17 43 C-16.01 43 -15.02 43 -14 43 C-13.6596875 41.576875 -13.6596875 41.576875 -13.3125 40.125 C-12.40420931 36.88390515 -11.0740467 34.09665158 -9.5 31.125 C-7.36661865 27.02765288 -6.15714285 23.25414282 -5.359375 18.71484375 C-5 17 -5 17 -4 16 C-3.46022423 13.2965852 -3.03533013 10.58104449 -2.59765625 7.859375 C-2.01166516 5.05580977 -1.1426727 2.62001942 0 0 Z " fill="#269C93" transform="translate(386,290)"/>
<path d="M0 0 C7.05889737 0.70588974 14.01204964 1.78213386 21 3 C20.01 3.495 20.01 3.495 19 4 C19.00444122 4.65573502 19.00888245 5.31147003 19.01345825 5.98707581 C19.05809998 12.88288162 19.08803386 19.77864563 19.10986328 26.67456055 C19.11984994 29.23968171 19.13344392 31.8047917 19.15087891 34.36987305 C19.3319431 61.71589162 19.3319431 61.71589162 17 74 C15.31621841 71.07645555 14.77675332 69.1748508 15.02124023 65.81762695 C15.07256607 65.00061813 15.12389191 64.18360931 15.17677307 63.34184265 C15.2408989 62.46204239 15.30502472 61.58224213 15.37109375 60.67578125 C16.06569512 49.16924778 16.11469695 37.71120743 16.0625 26.1875 C16.05746397 24.2115897 16.05290486 22.23567813 16.04882812 20.25976562 C16.03801427 15.5064778 16.02087155 10.75325385 16 6 C11.62687499 4.51562398 7.38731254 3.41269515 2.85546875 2.5625 C1.93701172 2.2840625 1.93701172 2.2840625 1 2 C0.67 1.34 0.34 0.68 0 0 Z " fill="#2B928D" transform="translate(371,216)"/>
<path d="M0 0 C3.11946203 2.89600364 5.26988604 5.80976345 7.42578125 9.47265625 C8.05806641 10.53806641 8.69035156 11.60347656 9.34179688 12.70117188 C9.99212891 13.81041016 10.64246094 14.91964844 11.3125 16.0625 C12.59877224 18.24176447 13.88652376 20.42015653 15.17578125 22.59765625 C15.80436035 23.66129395 16.43293945 24.72493164 17.08056641 25.82080078 C19.53967441 29.89387436 22.12193811 33.88024341 24.73901367 37.85327148 C26 40 26 40 26 42 C27.32 42.33 28.64 42.66 30 43 C30 43.99 30 44.98 30 46 C30.66 46 31.32 46 32 46 C33.2890625 47.64453125 33.2890625 47.64453125 34.625 49.8125 C35.07101563 50.52019531 35.51703125 51.22789062 35.9765625 51.95703125 C37 54 37 54 37 57 C37.66 57 38.32 57 39 57 C43.65909091 61.31818182 43.65909091 61.31818182 45 64 C44.67 64.66 44.34 65.32 44 66 C40.91124352 65.68901599 39.40228031 65.42266015 37.2265625 63.13671875 C36.69804688 62.32847656 36.16953125 61.52023438 35.625 60.6875 C35.02429688 59.77355469 34.42359375 58.85960937 33.8046875 57.91796875 C31.46401347 54.13337244 29.21198403 50.30640962 27 46.4453125 C23.27542962 40.02915806 19.35588423 33.7303337 15.47460938 27.40820312 C13.96151901 24.93715621 12.45631179 22.46145745 10.953125 19.984375 C10.45844727 19.17049316 9.96376953 18.35661133 9.45410156 17.51806641 C8.50662176 15.95876537 7.56058544 14.39858603 6.61621094 12.83740234 C4.89741084 10.01329147 3.22466491 7.28760981 1.1875 4.6796875 C0 3 0 3 0 0 Z " fill="#9FDBD4" transform="translate(90,191)"/>
<path d="M0 0 C52.14 0 104.28 0 158 0 C158 0.33 158 0.66 158 1 C107.51 1.33 57.02 1.66 5 2 C5 2.99 5 3.98 5 5 C4.01 4.67 3.02 4.34 2 4 C1.34 2.68 0.68 1.36 0 0 Z " fill="#2D414A" transform="translate(180,28)"/>
<path d="M0 0 C2 0 4 0 6 0 C5.67 27.06 5.34 54.12 5 82 C4.67 82 4.34 82 4 82 C3.16274506 77.61515248 2.86142585 73.44967211 2.82641602 68.98828125 C2.8163855 67.97729874 2.8163855 67.97729874 2.80615234 66.94589233 C2.79217923 65.49237821 2.78026109 64.03884313 2.77020454 62.58529663 C2.75368145 60.28115149 2.73044182 57.97716209 2.70530701 55.6730957 C2.63482835 49.12556821 2.57441023 42.57797963 2.52319336 36.03027344 C2.49132591 32.01619466 2.45003967 28.00230104 2.40299797 23.9883728 C2.38703517 22.46385026 2.37468734 20.93928525 2.36609077 19.41470337 C2.35387632 17.28018459 2.32970411 15.14609835 2.30297852 13.01171875 C2.29267105 11.79959717 2.28236359 10.58747559 2.27174377 9.33862305 C1.99447422 5.93211074 1.21832253 3.18130077 0 0 Z " fill="#0D2732" transform="translate(192,206)"/>
<path d="M0 0 C1.32 0 2.64 0 4 0 C4.125 2.375 4.125 2.375 4 5 C3.34 5.66 2.68 6.32 2 7 C-0.70863256 13.00091835 -1.46161136 17.99399335 -1.51171875 24.53125 C-1.53864555 25.84603333 -1.53864555 25.84603333 -1.56611633 27.18737793 C-1.61984509 29.95820453 -1.65399373 32.72886265 -1.6875 35.5 C-1.72070621 37.39064826 -1.75519888 39.28127439 -1.79101562 41.171875 C-1.87554955 45.78112765 -1.94253791 50.3903336 -2 55 C-6.30410969 48.54383546 -5.18382419 41.20453852 -5.1875 33.6875 C-5.20586914 31.72780273 -5.20586914 31.72780273 -5.22460938 29.72851562 C-5.22654297 28.46072266 -5.22847656 27.19292969 -5.23046875 25.88671875 C-5.23457764 24.73389404 -5.23868652 23.58106934 -5.24291992 22.39331055 C-4.97824616 18.69612405 -4.10715937 15.52890534 -3 12 C-2.61787744 10.04692913 -2.26114189 8.08860877 -1.9375 6.125 C-1.11092985 1.11092985 -1.11092985 1.11092985 0 0 Z " fill="#32A394" transform="translate(60,76)"/>
<path d="M0 0 C2.93013843 1.26131787 5.49136379 2.78137898 8.171875 4.515625 C14.00969149 8.23986748 19.97911185 11.65565147 26.06567383 14.95703125 C29.20260175 16.68451269 32.03619333 18.24702128 34.359375 21.015625 C29.45945545 20.34745415 26.15844295 19.39138284 22.234375 16.390625 C20.47809574 14.81850378 20.47809574 14.81850378 18.359375 15.015625 C18.359375 14.355625 18.359375 13.695625 18.359375 13.015625 C16.379375 12.355625 14.399375 11.695625 12.359375 11.015625 C12.359375 10.355625 12.359375 9.695625 12.359375 9.015625 C11.555 8.891875 10.750625 8.768125 9.921875 8.640625 C9.07625 8.434375 8.230625 8.228125 7.359375 8.015625 C7.029375 7.355625 6.699375 6.695625 6.359375 6.015625 C3.18046696 4.01409031 0.04683828 3.5184609 -3.640625 3.015625 C-3.640625 4.005625 -3.640625 4.995625 -3.640625 6.015625 C-9.98988386 9.83218317 -15.15946367 12.73331703 -22.640625 13.015625 C-18.81307596 10.03311925 -14.77683225 7.39478154 -10.703125 4.765625 C-9.99994141 4.29382813 -9.29675781 3.82203125 -8.57226562 3.3359375 C-3.39977961 0.02011704 -3.39977961 0.02011704 0 0 Z " fill="#2E9F90" transform="translate(307.640625,183.984375)"/>
<path d="M0 0 C0 0.33 0 0.66 0 1 C-0.61818604 1.0093457 -1.23637207 1.01869141 -1.87329102 1.02832031 C-21.94239572 1.40828294 -39.49436779 3.85400364 -56.22265625 15.86328125 C-58 17 -58 17 -60 17 C-60 17.66 -60 18.32 -60 19 C-60.78375 19.2475 -61.5675 19.495 -62.375 19.75 C-65.49264619 21.23459342 -65.55481245 22.00639722 -67 25 C-68.04703991 26.26022587 -69.13368091 27.48821125 -70.25 28.6875 C-74.9587863 33.94679159 -78.94276142 39.62716465 -82 46 C-83 43 -83 43 -82.06640625 40.87109375 C-78.18470154 34.58978977 -74.08614473 28.38398204 -69 23 C-68.34 23 -67.68 23 -67 23 C-66.67 22.01 -66.34 21.02 -66 20 C-63.74518789 18.09842216 -61.51081999 16.34696731 -59.125 14.625 C-58.44244141 14.13185303 -57.75988281 13.63870605 -57.05664062 13.13061523 C-51.62539896 9.29113536 -46.29798562 6.21563483 -40 4 C-38.96617188 3.61070313 -37.93234375 3.22140625 -36.8671875 2.8203125 C-24.80713371 -1.09178549 -12.53737242 -0.38691001 0 0 Z " fill="#D6FBFA" transform="translate(144,30)"/>
<path d="M0 0 C1 2 1 2 0.44140625 4.05859375 C0.15136719 4.84363281 -0.13867188 5.62867188 -0.4375 6.4375 C-1.46835645 9.24346352 -2 10.97296354 -2 14 C-3.33333333 15.33333333 -4.66666667 16.66666667 -6 18 C-6.309375 18.886875 -6.61875 19.77375 -6.9375 20.6875 C-7.288125 21.450625 -7.63875 22.21375 -8 23 C-8.7425 23.04382813 -9.485 23.08765625 -10.25 23.1328125 C-14.69786838 24.53540736 -15.93716655 28.23575945 -18.0625 32.1875 C-18.90599496 33.7026908 -19.75102278 35.21702939 -20.59765625 36.73046875 C-20.99871582 37.45540527 -21.39977539 38.1803418 -21.81298828 38.92724609 C-23.41115728 41.71796078 -25.17301176 44.35445351 -27 47 C-27.33 46.34 -27.66 45.68 -28 45 C-27.01538086 42.89624023 -27.01538086 42.89624023 -25.46484375 40.30859375 C-24.90216797 39.36306641 -24.33949219 38.41753906 -23.75976562 37.44335938 C-23.15841797 36.45142578 -22.55707031 35.45949219 -21.9375 34.4375 C-21.36322266 33.47263672 -20.78894531 32.50777344 -20.19726562 31.51367188 C-17.06068017 26.27659966 -13.8158233 21.13763849 -10.3996582 16.07885742 C-8.25764477 12.8974089 -6.19196102 9.6680054 -4.125 6.4375 C-3.7228125 5.81037109 -3.320625 5.18324219 -2.90625 4.53710938 C-1.93678145 3.02520009 -0.96828101 1.5126701 0 0 Z " fill="#919FA5" transform="translate(193,185)"/>
<path d="M0 0 C2.97 0 5.94 0 9 0 C9 0.66 9 1.32 9 2 C9.82371094 1.83886719 10.64742187 1.67773438 11.49609375 1.51171875 C21.82385538 0.00342803 35.04765654 -0.2459951 45 3 C46.8515625 5.078125 46.8515625 5.078125 48 7 C47.44403137 6.67657623 46.88806274 6.35315247 46.31524658 6.01992798 C43.68274139 4.8602391 41.82432822 4.72461103 38.95605469 4.68115234 C37.95531921 4.66128265 36.95458374 4.64141296 35.92352295 4.62094116 C34.31395721 4.60361435 34.31395721 4.60361435 32.671875 4.5859375 C31.56773254 4.56657135 30.46359009 4.5472052 29.32598877 4.5272522 C25.80073767 4.46749108 22.27545385 4.42108436 18.75 4.375 C16.35936079 4.33681708 13.96873529 4.29776517 11.578125 4.2578125 C5.71887174 4.16179233 -0.14046415 4.07673452 -6 4 C-3 2 -3 2 -0.3125 2.375 C0.450625 2.58125 1.21375 2.7875 2 3 C2 2.34 2 1.68 2 1 C1.34 0.67 0.68 0.34 0 0 Z " fill="#102C38" transform="translate(232,44)"/>
<path d="M0 0 C1.28387802 3.85163405 0.43621406 4.91033377 -1.1875 8.5625 C-2.83989345 12.32779 -4.40656626 16.07434874 -5.8125 19.9375 C-8.35729509 26.34120566 -11.92334605 32.45005838 -16 38 C-17.485 38.495 -17.485 38.495 -19 39 C-19.125 33.25 -19.125 33.25 -18 31 C-17.34 31 -16.68 31 -16 31 C-15.731875 30.030625 -15.46375 29.06125 -15.1875 28.0625 C-14.795625 27.051875 -14.40375 26.04125 -14 25 C-13.01 24.67 -12.02 24.34 -11 24 C-10.67 22.02 -10.34 20.04 -10 18 C-9.34 18 -8.68 18 -8 18 C-8 17.34 -8 16.68 -8 16 C-7.34 16 -6.68 16 -6 16 C-5.62875 14.5459375 -5.62875 14.5459375 -5.25 13.0625 C-3.96145278 8.50589822 -2.00001521 4.28158597 0 0 Z " fill="#52B0A5" transform="translate(205,130)"/>
<path d="M0 0 C0.66 0 1.32 0 2 0 C1.43614171 3.54237499 0.56345378 6.13735361 -1.30078125 9.1953125 C-1.77773437 9.98462158 -2.2546875 10.77393066 -2.74609375 11.5871582 C-3.26300781 12.424646 -3.77992188 13.26213379 -4.3125 14.125 C-4.84359375 14.99793701 -5.3746875 15.87087402 -5.921875 16.77026367 C-10.20079603 23.77573836 -14.56884188 30.72622965 -18.98950195 37.64306641 C-21.78937988 42.03081237 -24.45630621 46.45854671 -27 51 C-27.75 49.375 -27.75 49.375 -28 47 C-26.1875 44 -26.1875 44 -24 41 C-23.32690513 39.66990018 -22.6605854 38.33635667 -22 37 C-20.76905988 34.9799957 -19.49473005 32.99177373 -18.21875 31 C-16.96557136 29.01500863 -16.96557136 29.01500863 -15.96875 26.875 C-15 25 -15 25 -13 23 C-12.67 22.01 -12.34 21.02 -12 20 C-11.34 19.67 -10.68 19.34 -10 19 C-8.95494265 17.16074601 -8.95494265 17.16074601 -8 15 C-6.66666667 12.33333333 -5.33333333 9.66666667 -4 7 C-3.34 7 -2.68 7 -2 7 C-2.04125 6.21625 -2.0825 5.4325 -2.125 4.625 C-2 2 -2 2 0 0 Z " fill="#2B9A8C" transform="translate(184,167)"/>
<path d="M0 0 C1 2 1 2 0.328125 4.12890625 C-0.02765625 4.93199219 -0.3834375 5.73507813 -0.75 6.5625 C-1.09546875 7.36816406 -1.4409375 8.17382812 -1.796875 9.00390625 C-3 11 -3 11 -6 12 C-6 12.99 -6 13.98 -6 15 C-7.98567708 15.48828125 -9.97135417 15.9765625 -11.95703125 16.46484375 C-13.65683202 16.91010705 -15.33301954 17.44433985 -17 18 C-19.57265818 18.07029121 -22.11641431 18.09370832 -24.6875 18.0625 C-25.38939453 18.05798828 -26.09128906 18.05347656 -26.81445312 18.04882812 C-28.54300538 18.03706927 -30.27151365 18.01913454 -32 18 C-32 17.67 -32 17.34 -32 17 C-28.7 17 -25.4 17 -22 17 C-22 16.34 -22 15.68 -22 15 C-20.82244141 14.56300781 -20.82244141 14.56300781 -19.62109375 14.1171875 C-11.43172581 10.92182676 -4.907799 7.50604553 0 0 Z " fill="#86CFC6" transform="translate(160,125)"/>
<path d="M0 0 C0.70125 0.70125 1.4025 1.4025 2.125 2.125 C3.07375 2.74375 4.0225 3.3625 5 4 C8.28104472 3.37963682 8.28104472 3.37963682 11 2 C11.99 3.485 11.99 3.485 13 5 C13.66 5.33 14.32 5.66 15 6 C14.34 6.66 13.68 7.32 13 8 C12.39649521 14.31984792 13.60174103 18.23452901 16.5625 23.75 C20.07277756 30.37391359 20.07277756 30.37391359 19.71484375 33.453125 C19.47894531 33.96359375 19.24304688 34.4740625 19 35 C18.57589844 33.97261719 18.15179688 32.94523437 17.71484375 31.88671875 C13.55495838 21.98873013 9.08290684 12.68400606 2.0625 4.4375 C0 2 0 2 0 0 Z " fill="#7A8D95" transform="translate(201,47)"/>
<path d="M0 0 C2.88888402 1.31541778 5.0030518 2.77135885 7.3125 4.9375 C10.6168058 7.85264773 13.8769509 9.39659202 18 11 C20.9375 12.5625 20.9375 12.5625 23 14 C23 14.66 23 15.32 23 16 C23.66 16 24.32 16 25 16 C25.556875 16.763125 26.11375 17.52625 26.6875 18.3125 C29.58995152 21.68561934 31.86695832 22.48985015 36 24 C36 24.66 36 25.32 36 26 C37.98 26.66 39.96 27.32 42 28 C39 29 39 29 36.50390625 27.84765625 C7.96418665 10.52673745 7.96418665 10.52673745 0 0 Z " fill="#8FD3CC" transform="translate(262,382)"/>
<path d="M0 0 C5 5 5 5 6.625 6.75 C8.09616618 8.25659086 8.09616618 8.25659086 11 9 C11.33 8.34 11.66 7.68 12 7 C12 7.99 12 8.98 12 10 C14.31 10 16.62 10 19 10 C19.33 14.29 19.66 18.58 20 23 C16.42969502 21.21484751 15.23044267 20.43418006 12.8125 17.5625 C12.21953125 16.85996094 11.6265625 16.15742188 11.015625 15.43359375 C10.35046875 14.63050781 9.6853125 13.82742188 9 13 C7.78570312 11.56333984 7.78570312 11.56333984 6.546875 10.09765625 C0 2.26405267 0 2.26405267 0 0 Z " fill="#76CFC5" transform="translate(242,359)"/>
<path d="M0 0 C2.68060754 3.28616647 4.4239343 6.74397476 6.25 10.5625 C9.03183905 16.31062613 12.19241664 21.61653804 15.8125 26.890625 C16.204375 27.58671875 16.59625 28.2828125 17 29 C16.67 29.66 16.34 30.32 16 31 C13.36 30.34 10.72 29.68 8 29 C8.33 27.68 8.66 26.36 9 25 C8.67 24.67 8.34 24.34 8 24 C7.95907063 21.66702567 7.95758277 19.33294775 8 17 C6.35 16.67 4.7 16.34 3 16 C2.92652344 15.07767578 2.92652344 15.07767578 2.8515625 14.13671875 C2.77679688 13.32847656 2.70203125 12.52023437 2.625 11.6875 C2.55539063 10.88699219 2.48578125 10.08648437 2.4140625 9.26171875 C2.10435574 6.72775559 2.10435574 6.72775559 0 4 C0 2.68 0 1.36 0 0 Z " fill="#788B92" transform="translate(210,334)"/>
<path d="M0 0 C19.08395537 -0.81523206 33.47291109 0.8106295 50 11 C47 12 47 12 45.09765625 11.1875 C44.40542969 10.795625 43.71320313 10.40375 43 10 C36.89188727 7.21269722 31.09877437 5.44268205 24.4453125 4.4921875 C22 4 22 4 20.11767578 2.99511719 C17.81601494 1.91354357 16.1990631 1.69424556 13.671875 1.5859375 C12.87265625 1.54726563 12.0734375 1.50859375 11.25 1.46875 C10.425 1.4378125 9.6 1.406875 8.75 1.375 C7.90953125 1.33632813 7.0690625 1.29765625 6.203125 1.2578125 C4.13576618 1.16384164 2.06791373 1.08084436 0 1 C0 0.67 0 0.34 0 0 Z " fill="#269989" transform="translate(123,32)"/>
<path d="M0 0 C4.85831717 7.28747576 4.32013287 16.22110932 4.25 24.6875 C4.24468262 25.83492676 4.23936523 26.98235352 4.23388672 28.16455078 C4.00962545 48.21464392 4.00962545 48.21464392 0 56 C-0.16750414 58.66709069 -0.16750414 58.66709069 0 61 C-1.32 61.66 -2.64 62.32 -4 63 C-2.90981021 57.96835481 -1.74022734 52.98101631 -0.4375 48 C3.53808971 32.03740497 2.06984501 16.13370261 0 0 Z " fill="#D8E5E9" transform="translate(221,82)"/>
<path d="M0 0 C0.66 0.33 1.32 0.66 2 1 C-8.25659129 10.83795491 -19.36810113 18.80858477 -31.375 26.375 C-32.01655029 26.77976562 -32.65810059 27.18453125 -33.3190918 27.6015625 C-42.74561267 33.44067725 -42.74561267 33.44067725 -47 35 C-47.66 34.67 -48.32 34.34 -49 34 C-48.40687012 33.65855957 -47.81374023 33.31711914 -47.20263672 32.96533203 C-30.21818111 23.15333281 -14.76327214 12.89947034 0 0 Z " fill="#D9E2E6" transform="translate(367,390)"/>
<path d="M0 0 C0 0.99 0 1.98 0 3 C-5.14285714 7 -5.14285714 7 -9 7 C-9.66 8.32 -10.32 9.64 -11 11 C-11.721875 10.814375 -12.44375 10.62875 -13.1875 10.4375 C-16.12826973 9.98004693 -18.14103058 10.26483643 -21 11 C-21 10.01 -21 9.02 -21 8 C-20.21496094 7.67386719 -19.42992187 7.34773437 -18.62109375 7.01171875 C-17.57050781 6.57472656 -16.51992187 6.13773438 -15.4375 5.6875 C-14.34566406 5.23375 -13.25382812 4.78 -12.12890625 4.3125 C-9.6995315 3.29343643 -7.28469059 2.25165211 -4.875 1.1875 C-2 0 -2 0 0 0 Z " fill="#1E9F8D" transform="translate(271,204)"/>
<path d="M0 0 C1.68991979 0.9601817 3.36209288 1.95355934 5 3 C5.99 2.67 6.98 2.34 8 2 C8.1546875 3.1446875 8.1546875 3.1446875 8.3125 4.3125 C9.04364039 7.17059424 9.76951913 8.15742885 12 10 C7.54842024 8.60888133 4.60948714 6.16889324 1.16015625 3.14453125 C-1.94789877 1.49776792 -3.67170221 2.02534502 -7 3 C-9.53396295 4.50798906 -9.53396295 4.50798906 -11.9375 6.5 C-16.50460115 9.96621589 -21.16563881 13.09207047 -26.0625 16.0625 C-26.71790771 16.46855469 -27.37331543 16.87460938 -28.04858398 17.29296875 C-29.66146245 18.26090735 -31.32739306 19.13937923 -33 20 C-33.66 19.67 -34.32 19.34 -35 19 C-34.20734741 18.50971313 -34.20734741 18.50971313 -33.39868164 18.00952148 C-30.94999251 16.49074135 -28.50561166 14.96523624 -26.0625 13.4375 C-25.18819336 12.8919043 -24.31388672 12.34630859 -23.41308594 11.78417969 C-18.97278932 8.98388795 -14.75909659 6.15527469 -10.75 2.75 C-7.13816901 -0.18819585 -4.72795169 -0.90922148 0 0 Z " fill="#D6E1E4" transform="translate(310,164)"/>
<path d="M0 0 C4.61995064 1.6693181 8.74940739 4.01027045 13 6.4375 C13.69867188 6.83259766 14.39734375 7.22769531 15.1171875 7.63476562 C18.05021006 9.29773408 20.9544973 10.97149761 23.8125 12.76171875 C26.75915021 14.42973325 28.66133825 14.41733272 32 14 C33.68029994 13.02308143 35.34928604 12.02611949 37 11 C37.99 11.33 38.98 11.66 40 12 C39.34 12 38.68 12 38 12 C37.67 13.32 37.34 14.64 37 16 C31.19229316 17.74914465 26.92599856 17.34094426 21.48706055 14.56298828 C18.27379892 12.78821458 15.12652954 10.92286161 12 9 C10.88753906 8.33226562 9.77507812 7.66453125 8.62890625 6.9765625 C1.19819079 2.39638158 1.19819079 2.39638158 0 0 Z " fill="#CFDCDF" transform="translate(278,414)"/>
<path d="M0 0 C0.33 0 0.66 0 1 0 C1 18.81 1 37.62 1 57 C0.67 57 0.34 57 0 57 C-0.02505615 55.93265625 -0.0501123 54.8653125 -0.07592773 53.765625 C-0.17161596 49.72485609 -0.27141094 45.68419644 -0.37231445 41.64355469 C-0.41506448 39.9098571 -0.4567676 38.17613332 -0.49731445 36.44238281 C-0.55650506 33.91983994 -0.61908842 31.39741234 -0.68359375 28.875 C-0.70424896 28.04589111 -0.72490417 27.21678223 -0.7461853 26.36254883 C-0.85910532 22.32806743 -1.02816334 18.31031887 -1.32861328 14.28515625 C-1.38316177 13.54990723 -1.43771027 12.8146582 -1.49391174 12.05712891 C-1.64999103 10.0671072 -1.8225915 8.07840085 -1.99633789 6.08984375 C-2 3 -2 3 0 0 Z " fill="#0B2630" transform="translate(369,392)"/>
<path d="M0 0 C1.58468677 0.45363171 3.16769924 0.91311452 4.75 1.375 C5.63171875 1.63023437 6.5134375 1.88546875 7.421875 2.1484375 C9.78148533 2.92782394 11.86828925 3.72486709 14 5 C14.625 7 14.625 7 15 9 C15.66 9.66 16.32 10.32 17 11 C11.99399078 10.45318976 8.02818933 8.75859667 3.625 6.4375 C2.66400391 5.9434668 2.66400391 5.9434668 1.68359375 5.43945312 C0.11861368 4.63360518 -1.44124021 3.81781507 -3 3 C-2.01 2.01 -1.02 1.02 0 0 Z " fill="#5D7177" transform="translate(345,184)"/>
<path d="M0 0 C0.33 0 0.66 0 1 0 C1.0583721 4.35410978 1.09372173 8.70811793 1.125 13.0625 C1.14175781 14.29162109 1.15851563 15.52074219 1.17578125 16.78710938 C1.20876483 22.90556393 1.17209842 28.24479433 -1 34 C-1.66 34 -2.32 34 -3 34 C-3.02708567 32.39592672 -3.04643483 30.7917215 -3.0625 29.1875 C-3.07410156 28.29417969 -3.08570313 27.40085937 -3.09765625 26.48046875 C-3 24 -3 24 -2 21 C-1.7954365 18.18441077 -1.62781322 15.38149159 -1.5 12.5625 C-1.43074773 11.04279734 -1.35794454 9.52325151 -1.28125 8.00390625 C-1.25095703 7.33174072 -1.22066406 6.6595752 -1.18945312 5.96704102 C-0.9903637 3.89994887 -0.55128733 1.99953253 0 0 Z " fill="#39A496" transform="translate(208,96)"/>
<path d="M0 0 C7.48306912 3.53413242 13.35909003 9.04178884 19 15 C18.01 15.99 17.02 16.98 16 18 C13.84622436 15.37801226 12.59927826 13.35595828 12 10 C11.01 10 10.02 10 9 10 C8.67 10.66 8.34 11.32 8 12 C7.34 12 6.68 12 6 12 C4.57055055 9.64561267 3.91338739 8.51967567 4.375 5.75 C4.58125 5.1725 4.7875 4.595 5 4 C2.525 3.01 2.525 3.01 0 2 C0 1.34 0 0.68 0 0 Z " fill="#229E8E" transform="translate(173,44)"/>
<path d="M0 0 C1.32 0 2.64 0 4 0 C4.19335938 0.56589844 4.38671875 1.13179687 4.5859375 1.71484375 C4.84632812 2.44832031 5.10671875 3.18179688 5.375 3.9375 C5.63023438 4.66839844 5.88546875 5.39929688 6.1484375 6.15234375 C6.85271413 8.18682116 6.85271413 8.18682116 9 9 C10.62700009 12.5590627 11.78941273 16.28176767 13 20 C13.66 20 14.32 20 15 20 C16.47265625 22.08203125 16.47265625 22.08203125 18.0625 24.8125 C18.58972656 25.70582031 19.11695312 26.59914062 19.66015625 27.51953125 C21 30 21 30 22 33 C18.4266191 31.80887303 18.16155681 31.07416183 16.328125 27.9140625 C15.83151367 27.07012939 15.33490234 26.22619629 14.82324219 25.35668945 C14.30407227 24.45523193 13.78490234 23.55377441 13.25 22.625 C12.1782577 20.79748787 11.10534746 18.97066016 10.03125 17.14453125 C9.25394531 15.81736084 9.25394531 15.81736084 8.4609375 14.46337891 C6.11443086 10.50678599 3.62489889 6.65192854 1.109375 2.80078125 C0 1 0 1 0 0 Z " fill="#339D91" transform="translate(94,196)"/>
<path d="M0 0 C1.15749563 2.19041774 2.12174541 4.33345529 2.97265625 6.6640625 C7.08255413 17.83002161 13.65639936 25.25614953 24 31 C25.34935074 31.97827929 26.69325696 32.96549509 28 34 C20.18316745 33.18383072 14.39134067 28.6141803 9.09765625 22.97265625 C7.59358695 21.03994634 6.26983961 19.09318723 5 17 C4.60039062 16.35160156 4.20078125 15.70320313 3.7890625 15.03515625 C1.05278108 10.13507783 0.2579994 5.57278707 0 0 Z " fill="#DDE7E9" transform="translate(132,452)"/>
<path d="M0 0 C1.24546405 2.49092811 0.7767578 3.41080733 0 6 C0.639375 6.226875 1.27875 6.45375 1.9375 6.6875 C4 8 4 8 4.75 10.625 C4.8325 11.40875 4.915 12.1925 5 13 C5.99 12.67 6.98 12.34 8 12 C8.061875 12.94875 8.12375 13.8975 8.1875 14.875 C8.455625 15.90625 8.72375 16.9375 9 18 C11.46255685 19.45291273 11.46255685 19.45291273 14 20 C14 20.99 14 21.98 14 23 C10.92740497 22.68575733 9.97271049 21.97179764 7.78125 19.70703125 C7.0284375 18.75183594 6.275625 17.79664063 5.5 16.8125 C4.71753906 15.81992187 3.93507812 14.82734375 3.12890625 13.8046875 C-3 5.73027523 -3 5.73027523 -3 3 C-2.34 3 -1.68 3 -1 3 C-0.67 2.01 -0.34 1.02 0 0 Z " fill="#259C8F" transform="translate(239,345)"/>
<path d="M0 0 C19.8 0 39.6 0 60 0 C60 0.33 60 0.66 60 1 C32.775 1.495 32.775 1.495 5 2 C5 2.99 5 3.98 5 5 C4.01 4.67 3.02 4.34 2 4 C1.34 2.68 0.68 1.36 0 0 Z " fill="#2B3F46" transform="translate(180,28)"/>
<path d="M0 0 C0.66 0 1.32 0 2 0 C2.79550392 1.39365 3.58621838 2.79003431 4.375 4.1875 C4.81585938 4.96480469 5.25671875 5.74210937 5.7109375 6.54296875 C8.81264129 12.45500416 9.2835713 16.89636254 9.1875 23.5 C9.18685547 24.34175781 9.18621094 25.18351562 9.18554688 26.05078125 C9.15645648 30.15575858 9.02520722 33.99759101 8 38 C6.02 38.495 6.02 38.495 4 39 C4.2165625 38.41734375 4.433125 37.8346875 4.65625 37.234375 C9.01030636 24.41409795 7.08871275 14.24135331 1.25 2.3125 C0.8375 1.549375 0.425 0.78625 0 0 Z " fill="#BCEFEC" transform="translate(157,86)"/>
<path d="M0 0 C0.99 0 1.98 0 3 0 C6.23535341 5.26705291 6.42943168 9.4552753 6.3125 15.4375 C6.31572266 16.25798828 6.31894531 17.07847656 6.32226562 17.92382812 C6.27787295 22.98055742 5.61872856 27.20830549 4 32 C3.17951476 29.15471727 2.90765369 26.72421616 3.0078125 23.76953125 C3.02457031 22.96580078 3.04132813 22.16207031 3.05859375 21.33398438 C3.10235653 19.67228606 3.15424597 18.01077896 3.21484375 16.34960938 C3.31963439 10.36225336 2.22854773 5.55133743 0 0 Z " fill="#2E9C8E" transform="translate(162,91)"/>
<path d="M0 0 C0.66 0.99 1.32 1.98 2 3 C1.5390625 5.04296875 1.5390625 5.04296875 0.625 7.1875 C0.18027344 8.26064453 0.18027344 8.26064453 -0.2734375 9.35546875 C-0.51320313 9.89816406 -0.75296875 10.44085938 -1 11 C-1.66 11 -2.32 11 -3 11 C-3.11601562 11.71671875 -3.23203125 12.4334375 -3.3515625 13.171875 C-4.03042097 16.1326794 -5.03139869 18.53022524 -6.375 21.25 C-6.79523438 22.12140625 -7.21546875 22.9928125 -7.6484375 23.890625 C-9 26 -9 26 -12 27 C-12 27.66 -12 28.32 -12 29 C-12.66 28.67 -13.32 28.34 -14 28 C-13.40832031 26.98421875 -12.81664062 25.9684375 -12.20703125 24.921875 C-7.52396218 16.7935961 -3.31519689 8.7961003 0 0 Z " fill="#03464B" transform="translate(381,314)"/>
<path d="M0 0 C-0.62648438 0.13535156 -1.25296875 0.27070312 -1.8984375 0.41015625 C-6.70902233 1.48228668 -6.70902233 1.48228668 -10.04296875 4.7578125 C-10.66366222 6.89503065 -10.66366222 6.89503065 -11 10 C-11.33 9.01 -11.66 8.02 -12 7 C-12.66 7 -13.32 7 -14 7 C-14.33 7.99 -14.66 8.98 -15 10 C-16.65 10.33 -18.3 10.66 -20 11 C-19.40227382 8.01136908 -18.54767448 6.38402673 -16.0390625 4.625 C-13.72524744 3.33356834 -11.39102176 2.14154685 -9 1 C-8.071875 0.54625 -7.14375 0.0925 -6.1875 -0.375 C-3.6729891 -1.09343169 -2.46461912 -0.71303446 0 0 Z " fill="#2CA292" transform="translate(108,37)"/>
<path d="M0 0 C0.66 0.33 1.32 0.66 2 1 C1.01 1.33 0.02 1.66 -1 2 C-1 2.66 -1 3.32 -1 4 C-1.78375 4.2475 -2.5675 4.495 -3.375 4.75 C-6.49264619 6.23459342 -6.55481245 7.00639722 -8 10 C-9.04703991 11.26022587 -10.13368091 12.48821125 -11.25 13.6875 C-15.9587863 18.94679159 -19.94276142 24.62716465 -23 31 C-24 28 -24 28 -23.06640625 25.87109375 C-19.18470154 19.58978977 -15.08614473 13.38398204 -10 8 C-9.34 8 -8.68 8 -8 8 C-7.67 7.01 -7.34 6.02 -7 5 C-5.37109375 3.61328125 -5.37109375 3.61328125 -3.4375 2.3125 C-2.47650391 1.65701172 -2.47650391 1.65701172 -1.49609375 0.98828125 C-1.00238281 0.66214844 -0.50867188 0.33601563 0 0 Z " fill="#C6F5F1" transform="translate(85,45)"/>
<path d="M0 0 C-2.68739872 0.79201177 -5.37491563 1.58361866 -8.0625 2.375 C-8.81466797 2.59671875 -9.56683594 2.8184375 -10.34179688 3.046875 C-11.08623047 3.26601562 -11.83066406 3.48515625 -12.59765625 3.7109375 C-13.33773926 3.92975586 -14.07782227 4.14857422 -14.84033203 4.37402344 C-16.228074 4.77625839 -17.61952371 5.16602695 -19.01513672 5.54003906 C-22.13826453 6.37977508 -24.27132884 7.18088589 -27 9 C-27.66 9 -28.32 9 -29 9 C-29 11.97 -29 14.94 -29 18 C-29.33 18 -29.66 18 -30 18 C-30 14.04 -30 10.08 -30 6 C-25.545 5.505 -25.545 5.505 -21 5 C-21 4.34 -21 3.68 -21 3 C-18.25244513 2.30111323 -15.50268803 1.6156012 -12.75 0.9375 C-11.97269531 0.73833984 -11.19539063 0.53917969 -10.39453125 0.33398438 C-9.64042969 0.15029297 -8.88632813 -0.03339844 -8.109375 -0.22265625 C-7.41811523 -0.39547119 -6.72685547 -0.56828613 -6.01464844 -0.74633789 C-3.74929191 -1.03156637 -2.1631688 -0.68076195 0 0 Z " fill="#82CBC2" transform="translate(245,214)"/>
<path d="M0 0 C1.32 0 2.64 0 4 0 C4.125 2.375 4.125 2.375 4 5 C3.34 5.66 2.68 6.32 2 7 C1.22960999 9.18745776 0.52938697 11.40008429 -0.125 13.625 C-0.47820313 14.81351563 -0.83140625 16.00203125 -1.1953125 17.2265625 C-1.46085937 18.14179687 -1.72640625 19.05703125 -2 20 C-2.66 19.67 -3.32 19.34 -4 19 C-3.42543058 14.69072935 -2.74822782 10.40776673 -2 6.125 C-1.835 5.17882812 -1.67 4.23265625 -1.5 3.2578125 C-1 1 -1 1 0 0 Z " fill="#3AA394" transform="translate(60,76)"/>
<path d="M0 0 C0.79578603 2.28158905 1.21496471 3.48974167 0.2578125 5.76171875 C-0.11601563 6.39722656 -0.48984375 7.03273438 -0.875 7.6875 C-4.25775362 14.61631258 -3.82640649 22.44000252 -4 30 C-4.66 29.67 -5.32 29.34 -6 29 C-6.3690205 13.25512528 -6.3690205 13.25512528 -4 6 C-3.34 6 -2.68 6 -2 6 C-2 5.01 -2 4.02 -2 3 C-1.34 3 -0.68 3 0 3 C0 2.01 0 1.02 0 0 Z " fill="#2E9B8D" transform="translate(102,87)"/>
<path d="M0 0 C0.66 0.33 1.32 0.66 2 1 C0.52267049 4.8947778 -1.45879633 5.97645504 -5 8 C-5.639375 8.7425 -6.27875 9.485 -6.9375 10.25 C-9 12 -9 12 -12.25 11.75 C-13.61125 11.37875 -13.61125 11.37875 -15 11 C-10.22276042 7.01896702 -5.11066313 3.53280791 0 0 Z " fill="#044249" transform="translate(333,377)"/>
<path d="M0 0 C0.99 0.33 1.98 0.66 3 1 C4.05504696 4.10652715 4.8433601 7.14966911 5.4375 10.375 C5.623125 10.91125 5.80875 11.4475 6 12 C6.99 12.33 7.98 12.66 9 13 C10.95542188 15.98459129 11 17.26414791 11 21 C11.66 21 12.32 21 13 21 C12.67 21.99 12.34 22.98 12 24 C10.87896292 22.21334715 9.75996744 20.42539547 8.6484375 18.6328125 C7.39942286 16.63794077 6.13017231 14.65572084 4.8515625 12.6796875 C4.10915361 11.51576619 3.36696621 10.35170356 2.625 9.1875 C1.91601562 8.08792969 1.20703125 6.98835937 0.4765625 5.85546875 C-0.25433594 4.44201172 -0.25433594 4.44201172 -1 3 C-0.67 2.01 -0.34 1.02 0 0 Z " fill="#38A093" transform="translate(81,171)"/>
<path d="M0 0 C2.67250291 1.13067431 4.38223088 2.34494006 6.5625 4.3125 C10.76706375 7.96297396 15.91179029 9.87236782 21 12 C21 12.33 21 12.66 21 13 C19.741875 13.04125 18.48375 13.0825 17.1875 13.125 C16.47980469 13.14820313 15.77210937 13.17140625 15.04296875 13.1953125 C10.2370675 12.73585731 6.23431704 8.33538945 3 5 C2.4225 4.46375 1.845 3.9275 1.25 3.375 C0 2 0 2 0 0 Z " fill="#32A291" transform="translate(103,129)"/>
<path d="M0 0 C1.69167644 1.61112042 3.07410245 3.11115368 4.375 5.0625 C6.34601246 7.41255332 8.11795 8.06528108 11 9 C10.67 9.99 10.34 10.98 10 12 C9.34 12 8.68 12 8 12 C9.98 14.97 11.96 17.94 14 21 C13.67 21.66 13.34 22.32 13 23 C0 5.26923077 0 5.26923077 0 0 Z " fill="#98DBD3" transform="translate(228,336)"/>
<path d="M0 0 C2.19340221 4.21434291 3.67095444 8.56995679 5.1875 13.0625 C5.47302734 13.87783203 5.75855469 14.69316406 6.05273438 15.53320312 C6.45008789 16.70979492 6.45008789 16.70979492 6.85546875 17.91015625 C7.09934326 18.62308838 7.34321777 19.33602051 7.59448242 20.07055664 C8 22 8 22 7 25 C6.67 23.68 6.34 22.36 6 21 C5.34 21 4.68 21 4 21 C3.566875 19.576875 3.566875 19.576875 3.125 18.125 C2.23174891 14.94788422 2.23174891 14.94788422 0 13 C-0.1953125 9.9609375 -0.1953125 9.9609375 -0.125 6.375 C-0.10695312 5.18648438 -0.08890625 3.99796875 -0.0703125 2.7734375 C-0.04710937 1.85820312 -0.02390625 0.94296875 0 0 Z " fill="#A6B7BE" transform="translate(202,309)"/>
<path d="M0 0 C1.32 0 2.64 0 4 0 C4.33 0.66 4.66 1.32 5 2 C5.886875 1.79375 6.77375 1.5875 7.6875 1.375 C11.2252711 0.97449761 12.86632967 1.43316484 16 3 C15.34 4.65 14.68 6.3 14 8 C10.45265111 7.33694413 7.81990835 5.86707876 4.75 4 C3.85796875 3.46375 2.9659375 2.9275 2.046875 2.375 C1.37140625 1.92125 0.6959375 1.4675 0 1 C0 0.67 0 0.34 0 0 Z " fill="#6C8187" transform="translate(328,178)"/>
<path d="M0 0 C0.66 0.33 1.32 0.66 2 1 C1.75 2.875 1.75 2.875 1 5 C0.360625 5.309375 -0.27875 5.61875 -0.9375 5.9375 C-3.26452391 6.87279303 -3.26452391 6.87279303 -4.25 9.625 C-4.4975 10.40875 -4.745 11.1925 -5 12 C-5.33 11.34 -5.66 10.68 -6 10 C-7.65 10.33 -9.3 10.66 -11 11 C-4.7706422 1.98776758 -4.7706422 1.98776758 0 0 Z " fill="#299C8F" transform="translate(84,48)"/>
<path d="M0 0 C0.99 0.33 1.98 0.66 3 1 C-3.20842195 6.75145688 -8.33001643 10.9678591 -17 12 C-15.75 10.5 -15.75 10.5 -14 9 C-12.68 9 -11.36 9 -10 9 C-10 8.34 -10 7.68 -10 7 C-9.01 7 -8.02 7 -7 7 C-6.67 6.01 -6.34 5.02 -6 4 C-5.01 4 -4.02 4 -3 4 C-3 3.34 -3 2.68 -3 2 C-2.01 2 -1.02 2 0 2 C0 1.34 0 0.68 0 0 Z " fill="#249B92" transform="translate(337,371)"/>
<path d="M0 0 C4.54109672 4.26587874 8.24735246 9.03612328 12 14 C11.67 14.66 11.34 15.32 11 16 C9.948125 14.576875 9.948125 14.576875 8.875 13.125 C6.30396782 10.00145374 3.98260427 8.92618704 0 8 C0 5.36 0 2.72 0 0 Z " fill="#91A1A7" transform="translate(227,365)"/>
<path d="M0 0 C0.33 0.66 0.66 1.32 1 2 C1.99 2.33 2.98 2.66 4 3 C3.67 3.66 3.34 4.32 3 5 C1.68 4.67 0.36 4.34 -1 4 C-1.33 6.64 -1.66 9.28 -2 12 C-2.639375 12.103125 -3.27875 12.20625 -3.9375 12.3125 C-4.9584375 12.6528125 -4.9584375 12.6528125 -6 13 C-6.33 13.99 -6.66 14.98 -7 16 C-7.66 15.67 -8.32 15.34 -9 15 C-6.03 10.05 -3.06 5.1 0 0 Z " fill="#233641" transform="translate(165,232)"/>
<path d="M0 0 C1.32 0 2.64 0 4 0 C4 0.66 4 1.32 4 2 C5.65 2 7.3 2 9 2 C9.33 2.99 9.66 3.98 10 5 C10.61875 5.28875 11.2375 5.5775 11.875 5.875 C14.67920898 7.35958123 15.54723288 9.23974247 17 12 C16.01 12 15.02 12 14 12 C13.67 10.68 13.34 9.36 13 8 C12.236875 7.896875 11.47375 7.79375 10.6875 7.6875 C7.68850105 6.92031422 7.00619569 6.25697015 5 4 C3.34466005 2.65263027 1.67987227 1.31665664 0 0 Z " fill="#70C0B8" transform="translate(146,78)"/>
<path d="M0 0 C-3 1 -3 1 -4.8828125 0.19140625 C-5.58148438 -0.20175781 -6.28015625 -0.59492187 -7 -1 C-12.25221836 -3.29676215 -17.24827626 -5.3945554 -23 -6 C-23 -6.33 -23 -6.66 -23 -7 C-15.01963407 -9.83174275 -6.64202307 -3.9726521 0 0 Z " fill="#2F9F91" transform="translate(173,43)"/>
<path d="M0 0 C0.33 0 0.66 0 1 0 C1.02895225 3.29164829 1.0467823 6.58326399 1.0625 9.875 C1.07087891 10.81214844 1.07925781 11.74929688 1.08789062 12.71484375 C1.09111328 13.61074219 1.09433594 14.50664062 1.09765625 15.4296875 C1.10289307 16.25710449 1.10812988 17.08452148 1.11352539 17.93701172 C1 20 1 20 0 22 C-0.66 22 -1.32 22 -2 22 C-2.33 22.99 -2.66 23.98 -3 25 C-2.25166929 16.63051177 -1.14302815 8.3230205 0 0 Z " fill="#045053" transform="translate(389,275)"/>
<path d="M0 0 C3.7910119 1.44950455 7.3874638 3.15172566 11 5 C11.33 4.34 11.66 3.68 12 3 C12.50615298 4.26839526 13.00469099 5.53983102 13.5 6.8125 C13.7784375 7.52019531 14.056875 8.22789063 14.34375 8.95703125 C15 11 15 11 15 14 C11.11303187 10.83618873 7.50277403 7.5949523 4 4 C3.236875 3.236875 2.47375 2.47375 1.6875 1.6875 C1.130625 1.130625 0.57375 0.57375 0 0 Z " fill="#A5B0B5" transform="translate(185,33)"/>
<path d="M0 0 C0.66 0 1.32 0 2 0 C1.39254603 4.85963179 -0.72758967 8.7405518 -3 13 C-3.66 13 -4.32 13 -5 13 C-4.4999231 7.89921563 -3.74076891 3.74076891 0 0 Z " fill="#15303A" transform="translate(392,327)"/>
<path d="M0 0 C4.30967916 0 5.89746745 2.16725288 9 5 C9.33 5.66 9.66 6.32 10 7 C9.67 7.66 9.34 8.32 9 9 C6.75 8.875 6.75 8.875 4 8 C0 2.91891892 0 2.91891892 0 0 Z " fill="#7FC6BA" transform="translate(125,248)"/>
<path d="M0 0 C0.66 1.32 1.32 2.64 2 4 C1.63648438 4.46148437 1.27296875 4.92296875 0.8984375 5.3984375 C-3.18141861 10.69178927 -6.65793406 16.21656675 -10 22 C-10.33 21.34 -10.66 20.68 -11 20 C-9.63419922 17.30395074 -8.21774047 14.72525824 -6.6875 12.125 C-5.85735041 10.69052204 -5.02790138 9.2556384 -4.19921875 7.8203125 C-3.82627686 7.18367676 -3.45333496 6.54704102 -3.0690918 5.89111328 C-1.97622753 3.95794895 -0.97657926 1.99406815 0 0 Z " fill="#C4CED3" transform="translate(216,145)"/>
<path d="M0 0 C1 3 1 3 0.0625 5.1875 C-0.288125 5.785625 -0.63875 6.38375 -1 7 C-1.66 7 -2.32 7 -3 7 C-3.268125 8.093125 -3.53625 9.18625 -3.8125 10.3125 C-4.87663739 13.61692663 -5.34654664 14.94960422 -8 17 C-8.66 16.67 -9.32 16.34 -10 16 C-6.99935973 10.36901124 -3.81213639 5.11915459 0 0 Z " fill="#37A192" transform="translate(72,59)"/>
<path d="M0 0 C0 0.33 0 0.66 0 1 C-5.28 1 -10.56 1 -16 1 C-16 1.66 -16 2.32 -16 3 C-20.62 3.33 -25.24 3.66 -30 4 C-21.36574597 -1.75616935 -9.93183092 -0.19285109 0 0 Z " fill="#5AB1A6" transform="translate(139,31)"/>
<path d="M0 0 C2.31 0.33 4.62 0.66 7 1 C7 1.66 7 2.32 7 3 C7.66 3 8.32 3 9 3 C9.12375 4.175625 9.12375 4.175625 9.25 5.375 C9.72806339 8.14749104 9.72806339 8.14749104 12.0625 9.3125 C12.701875 9.539375 13.34125 9.76625 14 10 C9.83878671 10 8.46553396 8.20445395 5.3125 5.5625 C4.31863281 4.73878906 3.32476562 3.91507812 2.30078125 3.06640625 C1.54152344 2.38449219 0.78226562 1.70257813 0 1 C0 0.67 0 0.34 0 0 Z " fill="#35A092" transform="translate(261,380)"/>
<path d="M0 0 C2.22695992 3.49832136 2.04194094 5.67963672 1.25 9.6875 C0.97929687 11.14736328 0.97929687 11.14736328 0.703125 12.63671875 C0.47109375 13.41660156 0.2390625 14.19648438 0 15 C-0.99 15.495 -0.99 15.495 -2 16 C-2 11.05 -2 6.1 -2 1 C-1.34 0.67 -0.68 0.34 0 0 Z " fill="#034C51" transform="translate(309,392)"/>
<path d="M0 0 C0.33 0 0.66 0 1 0 C1.39277143 2.68595232 1.76451095 5.37218357 2.125 8.0625 C2.23714844 8.81466797 2.34929687 9.56683594 2.46484375 10.34179688 C3.13334617 15.48926549 2.75460735 19.10659506 1 24 C0.67 24 0.34 24 0 24 C0 16.08 0 8.16 0 0 Z " fill="#0E2A35" transform="translate(226,96)"/>
<path d="M0 0 C0.33 0 0.66 0 1 0 C1 3.96 1 7.92 1 12 C-3.37702633 10.77443263 -7.69677317 9.46939453 -12 8 C-10.68 7.34 -9.36 6.68 -8 6 C-8 6.33 -8 6.66 -8 7 C-5.36 7.66 -2.72 8.32 0 9 C0 6.03 0 3.06 0 0 Z " fill="#1A9C8E" transform="translate(305,396)"/>
<path d="M0 0 C0.66 0.33 1.32 0.66 2 1 C2 1.66 2 2.32 2 3 C-4.03076923 7.06153846 -4.03076923 7.06153846 -8.9375 6.75 C-9.948125 6.5025 -10.95875 6.255 -12 6 C-10 4 -10 4 -7.5625 3.9375 C-6.2940625 3.9684375 -6.2940625 3.9684375 -5 4 C-4.01 3.67 -3.02 3.34 -2 3 C-2 2.34 -2 1.68 -2 1 C-1.34 0.67 -0.68 0.34 0 0 Z " fill="#14303A" transform="translate(327,398)"/>
<path d="M0 0 C5.29012124 4.40843437 10.18808428 9.07559794 15 14 C10.50219131 14 8.41945138 11.27261159 5.1875 8.375 C4 7 4 7 4 5 C3.34 5 2.68 5 2 5 C1.34 3.35 0.68 1.7 0 0 Z " fill="#132932" transform="translate(238,382)"/>
<path d="M0 0 C3.38055068 1.12685023 4.1079382 2.05384625 6.3125 4.75 C8.5422654 7.39725339 10.72300921 9.72656416 13.4375 11.875 C14.283125 12.57625 15.12875 13.2775 16 14 C16 14.66 16 15.32 16 16 C11.71357676 14.33536962 8.91382783 11.20924163 5.75 8 C5.19570312 7.4534375 4.64140625 6.906875 4.0703125 6.34375 C0 2.2533867 0 2.2533867 0 0 Z " fill="#CED8DC" transform="translate(239,381)"/>
<path d="M0 0 C6.13847182 1.63692582 12.04901126 3.78317598 18 6 C14.59598052 7.13732426 12.22543336 6.83989957 8.75 6.0625 C7.85796875 5.86785156 6.9659375 5.67320312 6.046875 5.47265625 C5.03367187 5.23869141 5.03367187 5.23869141 4 5 C3.67 4.01 3.34 3.02 3 2 C2.01 2 1.02 2 0 2 C0 1.34 0 0.68 0 0 Z " fill="#2F9C90" transform="translate(348,207)"/>
<path d="M0 0 C4.28025299 3.39468341 6.0082369 7.73531366 7 13 C6.57421875 15.28125 6.57421875 15.28125 6 17 C5.67 15.02 5.34 13.04 5 11 C4.01 11 3.02 11 2 11 C1.34 7.37 0.68 3.74 0 0 Z " fill="#27988B" transform="translate(199,73)"/>
<path d="M0 0 C7.48291572 6.15034169 7.48291572 6.15034169 10 10 C8.02 10.99 8.02 10.99 6 12 C3 6.25 3 6.25 3 4 C2.01 4 1.02 4 0 4 C0 2.68 0 1.36 0 0 Z " fill="#329D8F" transform="translate(182,50)"/>
<path d="M0 0 C0.33 0 0.66 0 1 0 C1 2.31 1 4.62 1 7 C1.66 7.33 2.32 7.66 3 8 C-1.12751449 7.39301257 -4.3321148 5.96189209 -8 4 C-8 3.34 -8 2.68 -8 2 C-8.66 1.67 -9.32 1.34 -10 1 C-5.545 1.99 -5.545 1.99 -1 3 C-0.67 2.01 -0.34 1.02 0 0 Z " fill="#3B948C" transform="translate(306,404)"/>
<path d="M0 0 C0.33 0 0.66 0 1 0 C1.02715383 1.74991334 1.04646551 3.49994945 1.0625 5.25 C1.07410156 6.22453125 1.08570313 7.1990625 1.09765625 8.203125 C1.01195577 10.65758678 0.70706066 12.66168914 0 15 C-0.66 15 -1.32 15 -2 15 C-2.3690205 4.44191344 -2.3690205 4.44191344 0 0 Z " fill="#299C8F" transform="translate(207,115)"/>
<path d="M0 0 C0.33 0 0.66 0 1 0 C1.19789024 3.22861733 1.38146345 6.45789727 1.5625 9.6875 C1.61857422 10.59951172 1.67464844 11.51152344 1.73242188 12.45117188 C1.78076172 13.33740234 1.82910156 14.22363281 1.87890625 15.13671875 C1.94960327 16.35427856 1.94960327 16.35427856 2.02172852 17.59643555 C1.99838228 20.1789485 1.5804792 22.48849909 1 25 C-0.88372214 21.82403161 -1.20001885 19.68030919 -0.9765625 16.015625 C-0.925 15.08105469 -0.8734375 14.14648438 -0.8203125 13.18359375 C-0.75585938 12.21550781 -0.69140625 11.24742187 -0.625 10.25 C-0.56828125 9.26644531 -0.5115625 8.28289062 -0.453125 7.26953125 C-0.31192448 4.845589 -0.16054205 2.42272541 0 0 Z " fill="#21A094" transform="translate(387,265)"/>
<path d="M0 0 C0 0.99 0 1.98 0 3 C-5.25714286 7 -5.25714286 7 -8 7 C-8 6.34 -8 5.68 -8 5 C-9.32 4.67 -10.64 4.34 -12 4 C-10.3767313 3.3291288 -8.75132422 2.66342971 -7.125 2 C-6.22007812 1.62875 -5.31515625 1.2575 -4.3828125 0.875 C-2 0 -2 0 0 0 Z " fill="#2EA192" transform="translate(271,204)"/>
<path d="M0 0 C0.33 0 0.66 0 1 0 C1.06058594 0.68964844 1.12117187 1.37929688 1.18359375 2.08984375 C1.71678217 8.06975696 2.31555093 14.03551528 3 20 C2.67 18.68 2.34 17.36 2 16 C1.34 16 0.68 16 0 16 C-0.19389096 13.5211787 -0.38040123 11.04219069 -0.5625 8.5625 C-0.61857422 7.85544922 -0.67464844 7.14839844 -0.73242188 6.41992188 C-0.86190993 4.61572163 -0.93521608 2.80768048 -1 1 C-0.67 0.67 -0.34 0.34 0 0 Z " fill="#59B3A9" transform="translate(217,292)"/>
<path d="M0 0 C1 4 1 4 0.3125 6 C-1.20988656 8.31982713 -2.97571423 10.11066661 -5 12 C-5.66 11.67 -6.32 11.34 -7 11 C-4.69 7.37 -2.38 3.74 0 0 Z " fill="#253D46" transform="translate(140,273)"/>
<path d="M0 0 C0.33 0.66 0.66 1.32 1 2 C1.66 2 2.32 2 3 2 C2.29445932 5.66881155 0.72264494 8.70450534 -1 12 C-1.66 12 -2.32 12 -3 12 C-2.01 8.04 -1.02 4.08 0 0 Z " fill="#03444C" transform="translate(385,302)"/>
<path d="M0 0 C-2.81656132 2.81656132 -4.61601605 2.98950864 -8.57421875 3.09765625 C-9.94534658 3.09103244 -11.31645717 3.07914198 -12.6875 3.0625 C-13.38939453 3.05798828 -14.09128906 3.05347656 -14.81445312 3.04882812 C-16.54300538 3.03706927 -18.27151365 3.01913454 -20 3 C-20 2.67 -20 2.34 -20 2 C-6.3667426 -0.29612756 -6.3667426 -0.29612756 0 0 Z " fill="#3FA596" transform="translate(148,140)"/>
<path d="M0 0 C0.66 0 1.32 0 2 0 C1.68097587 5.26389811 -1.39278565 8.44402449 -5 12 C-5.33 12 -5.66 12 -6 12 C-6 10.35 -6 8.7 -6 7 C-5.01 7 -4.02 7 -3 7 C-3 6.01 -3 5.02 -3 4 C-2.01 4 -1.02 4 0 4 C0 2.68 0 1.36 0 0 Z " fill="#72C2BA" transform="translate(109,79)"/>
<path d="M0 0 C0.66 0 1.32 0 2 0 C2.33 0.99 2.66 1.98 3 3 C3.66 3.33 4.32 3.66 5 4 C6.61287128 7.81995829 7.20681069 10.05432816 6 14 C4.99515796 12.04414675 3.99626195 10.08523763 3 8.125 C2.1646875 6.48917969 2.1646875 6.48917969 1.3125 4.8203125 C0 2 0 2 0 0 Z " fill="#3EA095" transform="translate(226,329)"/>
<path d="M0 0 C0.66 0 1.32 0 2 0 C1.855625 0.66 1.71125 1.32 1.5625 2 C0.97395007 4.82816941 0.97395007 4.82816941 0.8515625 7.04296875 C0.6875 9.1875 0.6875 9.1875 0 13 C-2.04296875 14.23828125 -2.04296875 14.23828125 -4 15 C-2.9318153 9.88634986 -1.76892524 4.92772031 0 0 Z " fill="#AEBABE" transform="translate(221,130)"/>
<path d="M0 0 C6.52396607 0.25786427 10.87818251 0.82167521 16 5 C14.68 5.33 13.36 5.66 12 6 C12 5.34 12 4.68 12 4 C11.13375 3.87625 10.2675 3.7525 9.375 3.625 C6.10486147 3.01941879 3.12743101 2.11693965 0 1 C0 0.67 0 0.34 0 0 Z " fill="#39A095" transform="translate(138,74)"/>
<path d="M0 0 C3.79303725 1.00193437 6.71536341 1.81024227 10 4 C10 4.66 10 5.32 10 6 C11.98 6.66 13.96 7.32 16 8 C13 9 13 9 10.1171875 7.63671875 C9.04726563 6.99347656 7.97734375 6.35023438 6.875 5.6875 C5.79992187 5.05199219 4.72484375 4.41648437 3.6171875 3.76171875 C1 2 1 2 0 0 Z " fill="#C2EDE9" transform="translate(288,402)"/>
<path d="M0 0 C0.99 0.99 1.98 1.98 3 3 C0.6875 5.5 0.6875 5.5 -2 8 C-2.99 8 -3.98 8 -5 8 C-5 7.01 -5 6.02 -5 5 C-4.01 5 -3.02 5 -2 5 C-1.34 3.35 -0.68 1.7 0 0 Z " fill="#1B3741" transform="translate(347,382)"/>
<path d="M0 0 C2.6875 0.875 2.6875 0.875 5 2 C5 3.32 5 4.64 5 6 C1.31245243 5.50168276 -0.60490662 4.89932357 -3 2 C-2.01 1.34 -1.02 0.68 0 0 Z " fill="#687C81" transform="translate(345,184)"/>
<path d="M0 0 C0.66 0 1.32 0 2 0 C2 4.29 2 8.58 2 13 C1.34 13 0.68 13 0 13 C-0.19466332 11.20909747 -0.38051213 9.41723495 -0.5625 7.625 C-0.66691406 6.62726563 -0.77132813 5.62953125 -0.87890625 4.6015625 C-1 2 -1 2 0 0 Z " fill="#273E47" transform="translate(404,277)"/>
<path d="M0 0 C1.32 0.66 2.64 1.32 4 2 C3.01 3.98 2.02 5.96 1 8 C-0.32 7.67 -1.64 7.34 -3 7 C-1.125 2.25 -1.125 2.25 0 0 Z " fill="#1B3843" transform="translate(202,172)"/>
<path d="M0 0 C0.66 0 1.32 0 2 0 C2.1875 3.375 2.1875 3.375 2 7 C1.01 7.66 0.02 8.32 -1 9 C-2.1875 7.3125 -2.1875 7.3125 -3 5 C-1.75 2.25 -1.75 2.25 0 0 Z " fill="#193640" transform="translate(210,159)"/>
<path d="M0 0 C4.87362847 0.45336079 7.39042389 1.7089159 11 5 C8.3333581 6.33332095 6.83319697 5.67102033 4 5 C3.67 3.68 3.34 2.36 3 1 C2.01 1.33 1.02 1.66 0 2 C0 1.34 0 0.68 0 0 Z " fill="#1B333D" transform="translate(281,419)"/>
<path d="M0 0 C0.99 0.33 1.98 0.66 3 1 C2.0919838 2.13199353 1.17316174 3.25532363 0.25 4.375 C-0.26046875 5.00148438 -0.7709375 5.62796875 -1.296875 6.2734375 C-3.08199481 8.08312318 -4.67949644 9.00117455 -7 10 C-5.76551991 6.29655972 -3.76665659 4.69749018 -1 2 C-0.67 1.34 -0.34 0.68 0 0 Z " fill="#0D2630" transform="translate(363,369)"/>
<path d="M0 0 C0.226875 0.61875 0.45375 1.2375 0.6875 1.875 C2.37929835 4.61410209 3.99244161 5.05024472 7 6 C7 6.99 7 7.98 7 9 C4.62051228 8.82374165 3.29774151 8.30280227 1.62109375 6.59765625 C0.37884514 5.09350908 -0.81376056 3.54870149 -2 2 C-1.34 1.34 -0.68 0.68 0 0 Z " fill="#269B8B" transform="translate(246,359)"/>
<path d="M0 0 C0.66 0 1.32 0 2 0 C1.67 2.97 1.34 5.94 1 9 C-0.32 9.33 -1.64 9.66 -3 10 C-2.01 6.7 -1.02 3.4 0 0 Z " fill="#95D6CF" transform="translate(164,115)"/>
<path d="M0 0 C1.65 0.33 3.3 0.66 5 1 C4.01 3.64 3.02 6.28 2 9 C1.67 8.34 1.34 7.68 1 7 C0.34 6.67 -0.32 6.34 -1 6 C-0.67 4.02 -0.34 2.04 0 0 Z " fill="#24404D" transform="translate(221,48)"/>
<path d="M0 0 C5.28 0 10.56 0 16 0 C16 0.33 16 0.66 16 1 C10.555 1.495 10.555 1.495 5 2 C5 2.99 5 3.98 5 5 C4.01 4.67 3.02 4.34 2 4 C1.34 2.68 0.68 1.36 0 0 Z " fill="#526468" transform="translate(180,28)"/>
<path d="M0 0 C2.475 0.495 2.475 0.495 5 1 C5 1.99 5 2.98 5 4 C2.5 6.1875 2.5 6.1875 0 8 C0 6.35 0 4.7 0 3 C0.66 2.67 1.32 2.34 2 2 C1.34 1.34 0.68 0.68 0 0 Z " fill="#203642" transform="translate(351,377)"/>
<path d="M0 0 C-0.33 0.99 -0.66 1.98 -1 3 C-1.66 3 -2.32 3 -3 3 C-3 3.66 -3 4.32 -3 5 C-4.96147874 6.38938077 -6.96166576 7.7260411 -9 9 C-8.75 7.125 -8.75 7.125 -8 5 C-5.9375 3.75 -5.9375 3.75 -4 3 C-4 2.34 -4 1.68 -4 1 C-2 0 -2 0 0 0 Z " fill="#27978E" transform="translate(350,362)"/>
<path d="M0 0 C0.99 0 1.98 0 3 0 C3 1.65 3 3.3 3 5 C1.5 3.625 1.5 3.625 0 2 C0 1.34 0 0.68 0 0 Z M0 3 C0.33 3.99 0.66 4.98 1 6 C-0.32 6.99 -1.64 7.98 -3 9 C-2.625 6.5625 -2.625 6.5625 -2 4 C-1.34 3.67 -0.68 3.34 0 3 Z " fill="#132B38" transform="translate(217,147)"/>
<path d="M0 0 C1.32 0 2.64 0 4 0 C4 1.65 4 3.3 4 5 C2.35 5 0.7 5 -1 5 C-1.33 5.66 -1.66 6.32 -2 7 C-1.125 1.125 -1.125 1.125 0 0 Z " fill="#73C7BD" transform="translate(60,76)"/>
<path d="M0 0 C0 3 0 3 -1.4375 4.5 C-1.953125 4.995 -2.46875 5.49 -3 6 C-3.33 6.99 -3.66 7.98 -4 9 C-5.65 9 -7.3 9 -9 9 C-6 6 -3 3 0 0 Z " fill="#01474A" transform="translate(345,367)"/>
<path d="M0 0 C0.66 0.33 1.32 0.66 2 1 C1.38461538 6.53846154 1.38461538 6.53846154 -0.5625 8.875 C-1.036875 9.24625 -1.51125 9.6175 -2 10 C-3.39195915 5.82412255 -1.82323219 3.86525224 0 0 Z " fill="#122E38" transform="translate(396,316)"/>
<path d="M0 0 C1.41750563 0.11509661 2.83401169 0.24253658 4.25 0.375 C5.03890625 0.44460937 5.8278125 0.51421875 6.640625 0.5859375 C9.085877 1.01507113 10.84836903 1.78600638 13 3 C9.7600034 4.07999887 8.61636465 3.92129428 5.375 3.1875 C4.18003906 2.93033203 4.18003906 2.93033203 2.9609375 2.66796875 C1 2 1 2 0 0 Z " fill="#29978B" transform="translate(371,216)"/>
<path d="M0 0 C-3.31371 2.20914 -4.3446021 2.22481553 -8.1875 2.125 C-9.08855469 2.10695312 -9.98960937 2.08890625 -10.91796875 2.0703125 C-11.60503906 2.04710937 -12.29210937 2.02390625 -13 2 C-9.15166533 -1.84833467 -5.03008029 -1.0528075 0 0 Z " fill="#36A99A" transform="translate(248,215)"/>
<path d="M0 0 C2.475 0.99 2.475 0.99 5 2 C4.34 3.32 3.68 4.64 3 6 C1.68 5.67 0.36 5.34 -1 5 C-0.67 3.35 -0.34 1.7 0 0 Z " fill="#1A3642" transform="translate(234,379)"/>
<path d="M0 0 C2.475 0.99 2.475 0.99 5 2 C5 2.66 5 3.32 5 4 C5.99 4.33 6.98 4.66 8 5 C8.33 6.65 8.66 8.3 9 10 C5.73991357 6.83047153 2.77762123 3.60062011 0 0 Z " fill="#34A092" transform="translate(252,370)"/>
<path d="M0 0 C1.125 2.0625 1.125 2.0625 2 4 C0.02 4.66 -1.96 5.32 -4 6 C-4 4.68 -4 3.36 -4 2 C-4.66 1.34 -5.32 0.68 -6 0 C-2.25 -1.125 -2.25 -1.125 0 0 Z " fill="#1C3643" transform="translate(256,188)"/>
<path d="M0 0 C0.99 0.33 1.98 0.66 3 1 C3.33 3.64 3.66 6.28 4 9 C1.24338912 6.51015791 -0.60746455 4.79450934 -1 1 C-0.67 0.67 -0.34 0.34 0 0 Z " fill="#2A9A89" transform="translate(81,171)"/>
<path d="M0 0 C-0.66 0 -1.32 0 -2 0 C-2.33 1.32 -2.66 2.64 -3 4 C-4.65 4 -6.3 4 -8 4 C-7 1 -7 1 -5.125 -0.25 C-3 -1 -3 -1 0 0 Z " fill="#86979E" transform="translate(318,426)"/>
<path d="M0 0 C-0.53625 0.12375 -1.0725 0.2475 -1.625 0.375 C-4.4638286 1.12206016 -7.22223202 2.05303364 -10 3 C-10.33 1.68 -10.66 0.36 -11 -1 C-3.57142857 -2.42857143 -3.57142857 -2.42857143 0 0 Z " fill="#19353F" transform="translate(276,183)"/>
<path d="M0 0 C1.32 0 2.64 0 4 0 C2.86500606 3.29148243 2.00716624 3.9959869 -1.125 5.75 C-2.548125 6.36875 -2.548125 6.36875 -4 7 C-2.79618552 4.50638429 -1.54571278 2.31856917 0 0 Z " fill="#1A343A" transform="translate(286,172)"/>
<path d="M0 0 C4.2742558 1.5830577 6.26531794 4.50568404 9 8 C6.625 7.75 6.625 7.75 4 7 C2.8125 5 2.8125 5 2 3 C1.34 2.67 0.68 2.34 0 2 C0 1.34 0 0.68 0 0 Z " fill="#28978A" transform="translate(103,129)"/>
<path d="M0 0 C2.8992226 0.46761655 3.86675182 0.86675182 6 3 C1.98195309 3.84098656 -1.01803543 4.05404945 -5 3 C-4.360625 2.690625 -3.72125 2.38125 -3.0625 2.0625 C-1.06389179 1.1654837 -1.06389179 1.1654837 0 0 Z " fill="#1E373F" transform="translate(338,483)"/>
<path d="M0 0 C0.99 0.99 1.98 1.98 3 3 C-0.22791555 5.1519437 -1.28400809 5.20086443 -5 5 C-4 2 -4 2 -1.9375 0.8125 C-1.298125 0.544375 -0.65875 0.27625 0 0 Z " fill="#102A35" transform="translate(346,480)"/>
<path d="M0 0 C0.33 0.66 0.66 1.32 1 2 C3.01669827 3.13350534 3.01669827 3.13350534 5 4 C3.02 4.66 1.04 5.32 -1 6 C-1.66 5.34 -2.32 4.68 -3 4 C-2.67 3.67 -2.34 3.34 -2 3 C-2.66 2.34 -3.32 1.68 -4 1 C-2 0 -2 0 0 0 Z " fill="#183946" transform="translate(320,425)"/>
<path d="M0 0 C2.78637633 4.1795645 1.79562512 6.14668677 1 11 C0.34 10.34 -0.32 9.68 -1 9 C-0.9765625 6.8359375 -0.9765625 6.8359375 -0.625 4.375 C-0.51414062 3.55773437 -0.40328125 2.74046875 -0.2890625 1.8984375 C-0.19367188 1.27195312 -0.09828125 0.64546875 0 0 Z " fill="#223844" transform="translate(402,293)"/>
<path d="M0 0 C4.455 0.99 4.455 0.99 9 2 C9 2.66 9 3.32 9 4 C5.625 3.6875 5.625 3.6875 2 3 C1.34 2.01 0.68 1.02 0 0 Z " fill="#748389" transform="translate(322,174)"/>
<path d="M0 0 C2.74277578 3.19990508 4.6302836 6.00499382 6 10 C5.01 10.33 4.02 10.66 3 11 C0 4.5 0 4.5 0 0 Z " fill="#3FA599" transform="translate(195,64)"/>
<path d="M0 0 C2.83374881 3.20336822 3.5205537 5.78087253 4 10 C3.34 10 2.68 10 2 10 C1.01 7.03 0.02 4.06 -1 1 C-0.67 0.67 -0.34 0.34 0 0 Z " fill="#1D363E" transform="translate(365,49)"/>
<path d="M0 0 C0.66 0.66 1.32 1.32 2 2 C1 5 1 5 -1.0625 6.1875 C-1.701875 6.455625 -2.34125 6.72375 -3 7 C-3.66 6.34 -4.32 5.68 -5 5 C-3.35 3.35 -1.7 1.7 0 0 Z " fill="#1E3C45" transform="translate(336,391)"/>
<path d="M0 0 C0.99 0 1.98 0 3 0 C2.875 1.75 2.875 1.75 2 4 C-1.0625 6.25 -1.0625 6.25 -4 8 C-2.66666667 5.33333333 -1.33333333 2.66666667 0 0 Z " fill="#273D47" transform="translate(147,261)"/>
<path d="M0 0 C0.6875 1.8125 0.6875 1.8125 1 4 C-0.4375 5.75 -0.4375 5.75 -2 7 C-2.99 6.67 -3.98 6.34 -5 6 C-3.35 4.02 -1.7 2.04 0 0 Z " fill="#05444A" transform="translate(366,344)"/>
<path d="M0 0 C1.2410689 2.4821378 1 4.24140025 1 7 C1.29044914 8.34332728 1.60955794 9.68225804 2 11 C-0.25245881 8.31158141 -1.88213958 6.35358125 -3 3 C-2.34 3 -1.68 3 -1 3 C-0.67 2.01 -0.34 1.02 0 0 Z " fill="#39A397" transform="translate(239,345)"/>
<path d="M0 0 C0.33 0.66 0.66 1.32 1 2 C1.99 2.33 2.98 2.66 4 3 C3.67 3.66 3.34 4.32 3 5 C1.68 4.67 0.36 4.34 -1 4 C-1.33 4.99 -1.66 5.98 -2 7 C-2.33 6.34 -2.66 5.68 -3 5 C-1.5625 2.375 -1.5625 2.375 0 0 Z " fill="#27414C" transform="translate(165,232)"/>
<path d="M0 0 C1.8125 1.5625 1.8125 1.5625 3 3 C-0.71888239 2.49287967 -3.73454239 1.88391785 -7 0 C-4.26634878 -1.36682561 -2.89333621 -0.84683011 0 0 Z " fill="#229D89" transform="translate(339,202)"/>
<path d="M0 0 C0.66 0 1.32 0 2 0 C2.103125 0.763125 2.20625 1.52625 2.3125 2.3125 C3.04364039 5.17059424 3.76951913 6.15742885 6 8 C3.625 7.3125 3.625 7.3125 1 6 C-0.3125 3.375 -0.3125 3.375 -1 1 C-0.67 0.67 -0.34 0.34 0 0 Z " fill="#7D8D92" transform="translate(316,166)"/>
<path d="M0 0 C1.14926266 0.95421808 2.29430541 1.91352045 3.4375 2.875 C4.07558594 3.40867187 4.71367187 3.94234375 5.37109375 4.4921875 C7 6 7 6 8 8 C4.11137013 6.73882275 2.10624401 5.54735833 0 2 C0 1.34 0 0.68 0 0 Z " fill="#CCD9DD" transform="translate(141,472)"/>
<path d="M0 0 C0.99 0.99 1.98 1.98 3 3 C1.68 3.99 0.36 4.98 -1 6 C-1.66 5.67 -2.32 5.34 -3 5 C-2.625 3.0625 -2.625 3.0625 -2 1 C-1.34 0.67 -0.68 0.34 0 0 Z " fill="#132E38" transform="translate(340,388)"/>
<path d="M0 0 C0 1.66666667 0 3.33333333 0 5 C-0.66 5 -1.32 5 -2 5 C-2 5.99 -2 6.98 -2 8 C-2.99 8 -3.98 8 -5 8 C-5 5 -5 5 -2.5 2.3125 C-1.675 1.549375 -0.85 0.78625 0 0 Z " fill="#054749" transform="translate(352,360)"/>
<path d="M0 0 C0.33 0.66 0.66 1.32 1 2 C1.66 2.33 2.32 2.66 3 3 C2.01 4.32 1.02 5.64 0 7 C-0.99 6.67 -1.98 6.34 -3 6 C-2.01 4.02 -1.02 2.04 0 0 Z " fill="#274046" transform="translate(169,226)"/>
<path d="M0 0 C1.65 1.32 3.3 2.64 5 4 C2.36 4.33 -0.28 4.66 -3 5 C-1.125 1.125 -1.125 1.125 0 0 Z " fill="#243C48" transform="translate(227,197)"/>
<path d="M0 0 C-0.8125 1.9375 -0.8125 1.9375 -2 4 C-2.99 4.33 -3.98 4.66 -5 5 C-5.33 4.01 -5.66 3.02 -6 2 C-3 0 -3 0 0 0 Z " fill="#1F333E" transform="translate(354,478)"/>
<path d="M0 0 C1.42944945 2.35438733 2.08661261 3.48032433 1.625 6.25 C1.41875 6.8275 1.2125 7.405 1 8 C0.34 8 -0.32 8 -1 8 C-1.625 5.125 -1.625 5.125 -2 2 C-1.34 1.34 -0.68 0.68 0 0 Z " fill="#2A4650" transform="translate(274,465)"/>
<path d="M0 0 C0.99 0.66 1.98 1.32 3 2 C2.67 3.32 2.34 4.64 2 6 C0.68 5.67 -0.64 5.34 -2 5 C-1.34 3.35 -0.68 1.7 0 0 Z " fill="#213E45" transform="translate(172,221)"/>
<path d="M0 0 C1.98 0 3.96 0 6 0 C6 0.66 6 1.32 6 2 C1.545 2.495 1.545 2.495 -3 3 C-2.01 2.67 -1.02 2.34 0 2 C0 1.34 0 0.68 0 0 Z " fill="#33484F" transform="translate(210,202)"/>
</svg>
